<svg width="31" height="30" viewBox="0 0 31 30" fill="none" xmlns="http://www.w3.org/2000/svg">
<path d="M28 14.375V18.25C28 21.0503 28 22.4504 27.455 23.52C26.9757 24.4608 26.2108 25.2257 25.27 25.705C24.2004 26.25 22.8003 26.25 20 26.25H11C8.19974 26.25 6.79961 26.25 5.73005 25.705C4.78924 25.2257 4.02433 24.4608 3.54497 23.52C3 22.4504 3 21.0503 3 18.25V11.75C3 8.94974 3 7.54961 3.54497 6.48005C4.02433 5.53924 4.78924 4.77433 5.73005 4.29497C6.79961 3.75 8.19974 3.75 11 3.75H16.125M24.25 10V2.5M20.5 6.25H28M20.5 15C20.5 17.7614 18.2614 20 15.5 20C12.7386 20 10.5 17.7614 10.5 15C10.5 12.2386 12.7386 10 15.5 10C18.2614 10 20.5 12.2386 20.5 15Z" stroke="#8B95A1" stroke-width="2" stroke-linecap="round" stroke-linejoin="round"/>
</svg>
