<svg width="28" height="30" viewBox="0 0 28 30" fill="none" xmlns="http://www.w3.org/2000/svg">
<g filter="url(#filter0_d_108_316)">
<path d="M14.9823 2.76401C14.631 2.49076 14.4553 2.35413 14.2613 2.30162C14.0902 2.25528 13.9098 2.25528 13.7387 2.30162C13.5447 2.35413 13.369 2.49076 13.0177 2.76401L6.23539 8.03914C5.78202 8.39176 5.55534 8.56807 5.39203 8.78887C5.24737 8.98446 5.1396 9.2048 5.07403 9.43907C5 9.70353 5 9.99071 5 10.5651V17.8C5 18.9201 5 19.4802 5.21799 19.908C5.40973 20.2843 5.71569 20.5903 6.09202 20.782C6.51984 21 7.0799 21 8.2 21H10.2C10.48 21 10.62 21 10.727 20.9455C10.8211 20.8976 10.8976 20.8211 10.9455 20.727C11 20.62 11 20.48 11 20.2V13.6C11 13.0399 11 12.7599 11.109 12.546C11.2049 12.3578 11.3578 12.2049 11.546 12.109C11.7599 12 12.0399 12 12.6 12H15.4C15.9601 12 16.2401 12 16.454 12.109C16.6422 12.2049 16.7951 12.3578 16.891 12.546C17 12.7599 17 13.0399 17 13.6V20.2C17 20.48 17 20.62 17.0545 20.727C17.1024 20.8211 17.1789 20.8976 17.273 20.9455C17.38 21 17.52 21 17.8 21H19.8C20.9201 21 21.4802 21 21.908 20.782C22.2843 20.5903 22.5903 20.2843 22.782 19.908C23 19.4802 23 18.9201 23 17.8V10.5651C23 9.99071 23 9.70353 22.926 9.43907C22.8604 9.2048 22.7526 8.98446 22.608 8.78887C22.4447 8.56807 22.218 8.39176 21.7646 8.03914L14.9823 2.76401Z" fill="#191F28" stroke="#191F28" stroke-width="2" stroke-linecap="round" stroke-linejoin="round"/>
</g>
<defs>
<filter id="filter0_d_108_316" x="-2" y="0" width="32" height="32" filterUnits="userSpaceOnUse" color-interpolation-filters="sRGB">
<feFlood flood-opacity="0" result="BackgroundImageFix"/>
<feColorMatrix in="SourceAlpha" type="matrix" values="0 0 0 0 0 0 0 0 0 0 0 0 0 0 0 0 0 0 127 0" result="hardAlpha"/>
<feOffset dy="4"/>
<feGaussianBlur stdDeviation="2"/>
<feComposite in2="hardAlpha" operator="out"/>
<feColorMatrix type="matrix" values="0 0 0 0 0 0 0 0 0 0 0 0 0 0 0 0 0 0 0.25 0"/>
<feBlend mode="normal" in2="BackgroundImageFix" result="effect1_dropShadow_108_316"/>
<feBlend mode="normal" in="SourceGraphic" in2="effect1_dropShadow_108_316" result="shape"/>
</filter>
</defs>
</svg>
