<svg width="163" height="90" viewBox="0 0 163 90" fill="none" xmlns="http://www.w3.org/2000/svg">
<rect width="163" height="90" rx="8" fill="url(#paint0_linear_97_531)"/>
<path d="M27.824 20.976V22.816H29.648V24.56H27.824V25.936H29.648V27.68H27.824V29.456H25.68V20.976H27.824ZM27.824 30.032V35.376H25.68V31.728H18.192V30.032H27.824ZM20.48 21.744C21.216 21.744 21.8827 21.8987 22.48 22.208C23.088 22.5067 23.5627 22.928 23.904 23.472C24.2453 24.0053 24.416 24.608 24.416 25.28C24.416 25.952 24.2453 26.56 23.904 27.104C23.5627 27.6373 23.088 28.0587 22.48 28.368C21.8827 28.6667 21.216 28.816 20.48 28.816C19.744 28.816 19.0773 28.6667 18.48 28.368C17.8827 28.0587 17.4133 27.6373 17.072 27.104C16.7307 26.56 16.56 25.952 16.56 25.28C16.56 24.608 16.7307 24.0053 17.072 23.472C17.4133 22.928 17.8827 22.5067 18.48 22.208C19.0773 21.8987 19.744 21.744 20.48 21.744ZM20.48 23.552C19.9467 23.552 19.504 23.7067 19.152 24.016C18.8107 24.3253 18.64 24.7467 18.64 25.28C18.64 25.824 18.8107 26.2507 19.152 26.56C19.504 26.8693 19.9467 27.024 20.48 27.024C21.024 27.024 21.4667 26.8693 21.808 26.56C22.16 26.2507 22.336 25.824 22.336 25.28C22.336 24.7467 22.16 24.3253 21.808 24.016C21.4667 23.7067 21.024 23.552 20.48 23.552ZM43.2324 27.68V29.376H37.7924V30.512H41.6804V35.216H31.7284V30.512H35.6644V29.376H30.2244V27.68H43.2324ZM42.0804 21.36V23.056H40.2884V25.136H41.9684V26.832H31.4564V25.136H33.1524V23.056H31.3444V21.36H42.0804ZM33.8084 32.176V33.536H39.6004V32.176H33.8084ZM38.1604 25.136V23.056H35.2804V25.136H38.1604ZM55.1443 21.808V27.92H48.1523V21.808H55.1443ZM50.2323 23.488V26.256H53.0643V23.488H50.2323ZM59.4003 20.976V29.12H57.2563V20.976H59.4003ZM53.4323 29.872V28.736H55.6083V29.872H59.5923V31.456H55.6563C55.7416 31.7867 55.9603 32.112 56.3123 32.432C56.6749 32.752 57.1763 33.0293 57.8163 33.264C58.4669 33.4987 59.2456 33.6587 60.1523 33.744L59.4803 35.328C58.3176 35.232 57.3149 34.992 56.4723 34.608C55.6296 34.224 54.9789 33.7493 54.5203 33.184C54.0616 33.76 53.4109 34.2347 52.5683 34.608C51.7363 34.9813 50.7283 35.2213 49.5443 35.328L48.8723 33.744C49.7896 33.6693 50.5736 33.5147 51.2243 33.28C51.8749 33.0453 52.3763 32.768 52.7283 32.448C53.0909 32.128 53.3096 31.7973 53.3843 31.456H49.4323V29.872H53.4323ZM28.848 44.96V59.36H26.832V44.96H28.848ZM25.936 45.184V58.72H23.936V54.288H22.368C22.1013 54.992 21.7387 55.5307 21.28 55.904C20.8213 56.2773 20.2933 56.464 19.696 56.464C19.0667 56.464 18.5173 56.256 18.048 55.84C17.5787 55.4133 17.216 54.8053 16.96 54.016C16.704 53.216 16.576 52.2773 16.576 51.2C16.576 50.1227 16.704 49.1893 16.96 48.4C17.216 47.6107 17.5787 47.008 18.048 46.592C18.5173 46.1653 19.0667 45.952 19.696 45.952C20.2933 45.952 20.816 46.1387 21.264 46.512C21.7227 46.8747 22.0853 47.4027 22.352 48.096H23.936V45.184H25.936ZM19.696 47.968C19.3013 47.968 19.0027 48.24 18.8 48.784C18.5973 49.3173 18.496 50.1227 18.496 51.2C18.496 53.3653 18.896 54.448 19.696 54.448C20.5173 54.448 20.928 53.3653 20.928 51.2C20.928 49.0453 20.5173 47.968 19.696 47.968ZM22.768 49.808C22.8213 50.288 22.848 50.752 22.848 51.2C22.848 51.648 22.8213 52.1013 22.768 52.56H23.936V49.808H22.768ZM36.8644 53.728C37.8564 53.728 38.7204 53.8453 39.4564 54.08C40.1924 54.304 40.7577 54.6293 41.1524 55.056C41.547 55.4827 41.7444 55.984 41.7444 56.56C41.7444 57.4453 41.307 58.1387 40.4324 58.64C39.5577 59.1413 38.3684 59.392 36.8644 59.392C35.3604 59.392 34.1657 59.1413 33.2804 58.64C32.4057 58.1387 31.9684 57.4453 31.9684 56.56C31.9684 55.984 32.1657 55.4827 32.5604 55.056C32.9657 54.6293 33.5364 54.304 34.2724 54.08C35.0084 53.8453 35.8724 53.728 36.8644 53.728ZM36.8644 55.408C35.019 55.408 34.0964 55.792 34.0964 56.56C34.0964 57.3493 35.019 57.744 36.8644 57.744C38.7097 57.744 39.6324 57.3493 39.6324 56.56C39.6324 55.792 38.7097 55.408 36.8644 55.408ZM41.5684 44.976V48.288H43.4564V50.048H41.5684V53.44H39.4404V44.976H41.5684ZM32.7524 45.872V47.632H35.4724V45.872H37.5684V52.656H30.6404V45.872H32.7524ZM32.7524 51.008H35.4724V49.28H32.7524V51.008ZM57.3203 48.16V44.976H59.4643V52.848H57.3203V49.872H55.1923V48.16H57.3203ZM51.9923 53.408V54.688H57.3523V53.408H59.4643V59.216H49.8803V53.408H51.9923ZM51.9923 57.504H57.3523V56.336H51.9923V57.504ZM55.6403 45.6V47.28H52.8723C52.9363 48.1333 53.2349 48.912 53.7683 49.616C54.3123 50.32 55.0909 50.8373 56.1043 51.168L55.0483 52.832C54.2909 52.5867 53.6403 52.224 53.0963 51.744C52.5629 51.2533 52.1363 50.6773 51.8163 50.016C51.4963 50.7413 51.0483 51.3707 50.4723 51.904C49.8963 52.4373 49.1976 52.8427 48.3763 53.12L47.3043 51.424C48.3709 51.072 49.1816 50.5227 49.7363 49.776C50.3016 49.0293 50.6163 48.1973 50.6803 47.28H47.8803V45.6H55.6403ZM68.7126 50.144V51.84H74.1686V53.52H61.1606V51.84H66.5686V50.144H68.7126ZM67.6406 54.288C69.2086 54.288 70.43 54.512 71.3046 54.96C72.19 55.3973 72.6326 56.0213 72.6326 56.832C72.6326 57.6427 72.19 58.2667 71.3046 58.704C70.43 59.152 69.2086 59.376 67.6406 59.376C66.062 59.376 64.83 59.152 63.9446 58.704C63.07 58.2667 62.6326 57.6427 62.6326 56.832C62.6326 56.0213 63.07 55.3973 63.9446 54.96C64.83 54.512 66.062 54.288 67.6406 54.288ZM67.6406 55.888C66.67 55.888 65.95 55.968 65.4806 56.128C65.0113 56.2773 64.7766 56.512 64.7766 56.832C64.7766 57.1627 65.0113 57.408 65.4806 57.568C65.95 57.7173 66.67 57.792 67.6406 57.792C68.6113 57.792 69.326 57.7173 69.7846 57.568C70.254 57.408 70.4886 57.1627 70.4886 56.832C70.4886 56.5013 70.254 56.2613 69.7846 56.112C69.326 55.9627 68.6113 55.888 67.6406 55.888ZM73.0166 45.568V47.248H69.2566C69.4593 47.76 69.9233 48.208 70.6486 48.592C71.3846 48.9653 72.382 49.2 73.6406 49.296L72.9046 50.96C71.582 50.832 70.478 50.5387 69.5926 50.08C68.7073 49.6213 68.0673 49.0453 67.6726 48.352C67.278 49.0453 66.6326 49.6213 65.7366 50.08C64.8513 50.5387 63.7473 50.832 62.4246 50.96L61.6886 49.296C62.9366 49.2 63.9233 48.9653 64.6486 48.592C65.3846 48.208 65.8593 47.76 66.0726 47.248H62.3286V45.568H73.0166Z" fill="black"/>
<rect x="116.676" y="61.2625" width="2.06013" height="15.451" transform="rotate(27.16 116.676 61.2625)" fill="white"/>
<path d="M126.236 27.9621L139.983 35.0151L124.231 65.7174C122.283 69.5136 117.627 71.0122 113.831 69.0645C110.035 67.1169 108.536 62.4606 110.484 58.6644L126.236 27.9621Z" fill="white"/>
<path d="M123.366 38.0674L133.448 43.2396L122.398 64.777C120.97 67.5609 117.555 68.6599 114.771 67.2316C111.987 65.8033 110.888 62.3887 112.317 59.6048L123.366 38.0674Z" fill="#1B7BE8"/>
<rect x="130.491" y="17.4106" width="17.3014" height="3.05318" rx="1.52659" transform="rotate(27.16 130.491 17.4106)" fill="#B0B8C1"/>
<rect x="132.484" y="22" width="9.10376" height="7.63295" transform="rotate(27.16 132.484 22)" fill="white"/>
<rect x="123.04" y="25.1649" width="22.8989" height="3.46067" rx="1.73033" transform="rotate(27.16 123.04 25.1649)" fill="#B0B8C1"/>
<defs>
<linearGradient id="paint0_linear_97_531" x1="81.5" y1="-4.10212e-06" x2="157.5" y2="88.5" gradientUnits="userSpaceOnUse">
<stop stop-color="#E5E8EB"/>
<stop offset="1" stop-color="#B2B5B8"/>
</linearGradient>
</defs>
</svg>
