<svg width="163" height="90" viewBox="0 0 163 90" fill="none" xmlns="http://www.w3.org/2000/svg">
<g clip-path="url(#clip0_280_1192)">
<rect width="163" height="90" rx="8" fill="url(#paint0_linear_280_1192)"/>
<path d="M24.912 21.968V23.648H22.112V23.76C22.112 24.6773 22.3893 25.52 22.944 26.288C23.5093 27.056 24.3467 27.616 25.456 27.968L24.384 29.616C23.6053 29.3813 22.9387 29.024 22.384 28.544C21.8293 28.064 21.3867 27.4933 21.056 26.832C20.7253 27.5467 20.272 28.1653 19.696 28.688C19.12 29.2 18.4213 29.5893 17.6 29.856L16.512 28.192C17.6533 27.8293 18.5067 27.2427 19.072 26.432C19.648 25.6213 19.936 24.7307 19.936 23.76V23.648H17.088V21.968H24.912ZM28.448 20.976V31.36H26.304V20.976H28.448ZM20.96 30.416V33.424H28.8V35.12H18.832V30.416H20.96ZM33.5044 32.064V29.904H31.7124V25.024H39.6964V23.552H31.6964V21.872H41.8084V26.672H33.8244V28.208H42.1284V29.904H40.1284V32.064H43.2644V33.776H30.2244V32.064H33.5044ZM38.0484 32.064V29.904H35.5844V32.064H38.0484ZM59.3683 20.944V35.392H57.2243V20.944H59.3683ZM51.5923 21.936C52.3176 21.936 52.9683 22.1493 53.5443 22.576C54.1203 22.992 54.5683 23.5893 54.8883 24.368C55.2189 25.1467 55.3843 26.0533 55.3843 27.088C55.3843 28.1333 55.2189 29.0507 54.8883 29.84C54.5683 30.6187 54.1203 31.2213 53.5443 31.648C52.9683 32.064 52.3176 32.272 51.5923 32.272C50.8669 32.272 50.2163 32.064 49.6403 31.648C49.0643 31.2213 48.6109 30.6187 48.2803 29.84C47.9603 29.0507 47.8003 28.1333 47.8003 27.088C47.8003 26.0533 47.9603 25.1467 48.2803 24.368C48.6109 23.5893 49.0643 22.992 49.6403 22.576C50.2163 22.1493 50.8669 21.936 51.5923 21.936ZM51.5923 23.888C51.0589 23.888 50.6323 24.1653 50.3123 24.72C50.0029 25.2747 49.8483 26.064 49.8483 27.088C49.8483 28.1333 50.0029 28.9387 50.3123 29.504C50.6323 30.0587 51.0589 30.336 51.5923 30.336C52.1256 30.336 52.5469 30.0587 52.8563 29.504C53.1763 28.9387 53.3363 28.1333 53.3363 27.088C53.3363 26.064 53.1763 25.2747 52.8563 24.72C52.5469 24.1653 52.1256 23.888 51.5923 23.888ZM68.0086 21.776V26.352H63.8166V27.792C64.8833 27.7813 65.758 27.7547 66.4406 27.712C67.134 27.6693 67.8166 27.584 68.4886 27.456L68.6966 29.136C67.9073 29.2853 67.0913 29.3813 66.2486 29.424C65.4166 29.4667 64.2646 29.488 62.7926 29.488H61.6886V24.784H65.9126V23.472H61.6566V21.776H68.0086ZM73.2246 20.976V29.856H71.0806V27.696H68.8246V26.016H71.0806V24.656H68.8246V22.944H71.0806V20.976H73.2246ZM73.2246 30.496V35.376H71.0806V32.176H63.3366V30.496H73.2246Z" fill="black"/>
<rect x="89.5999" y="40.938" width="50" height="62" rx="4" transform="rotate(-11.5354 89.5999 40.938)" fill="#B0B8C1"/>
<rect x="96" y="44.9661" width="39.8363" height="55.9606" transform="rotate(-11.5354 96 44.9661)" fill="white"/>
<rect x="101" y="36.0598" width="25.3028" height="10.5218" rx="2" transform="rotate(-11.5354 101 36.0598)" fill="#8B95A1"/>
<path d="M106.209 38.5764L121.422 35.4715" stroke="#D1D6D8" stroke-width="1.5" stroke-linecap="round"/>
<path d="M106.868 41.9211L122.082 38.8162" stroke="#D1D6D8" stroke-width="1.5" stroke-linecap="round"/>
</g>
<defs>
<linearGradient id="paint0_linear_280_1192" x1="81.5" y1="-4.10212e-06" x2="157.5" y2="88.5" gradientUnits="userSpaceOnUse">
<stop stop-color="#E5E8EB"/>
<stop offset="1" stop-color="#B2B5B8"/>
</linearGradient>
<clipPath id="clip0_280_1192">
<rect width="163" height="90" rx="8" fill="white"/>
</clipPath>
</defs>
</svg>
