<svg width="164" height="188" viewBox="0 0 164 188" fill="none" xmlns="http://www.w3.org/2000/svg">
<rect width="164" height="188" rx="8" fill="#0E4E97"/>
<path d="M30.026 26.464V28.354H26.876V28.48C26.876 29.512 27.188 30.46 27.812 31.324C28.448 32.188 29.39 32.818 30.638 33.214L29.432 35.068C28.556 34.804 27.806 34.402 27.182 33.862C26.558 33.322 26.06 32.68 25.688 31.936C25.316 32.74 24.806 33.436 24.158 34.024C23.51 34.6 22.724 35.038 21.8 35.338L20.576 33.466C21.86 33.058 22.82 32.398 23.456 31.486C24.104 30.574 24.428 29.572 24.428 28.48V28.354H21.224V26.464H30.026ZM34.004 25.348V37.03H31.592V25.348H34.004ZM25.58 35.968V39.352H34.4V41.26H23.186V35.968H25.58ZM39.6924 37.822V35.392H37.6764V29.902H46.6584V28.246H37.6584V26.356H49.0344V31.756H40.0524V33.484H49.3944V35.392H47.1444V37.822H50.6724V39.748H36.0024V37.822H39.6924ZM44.8044 37.822V35.392H42.0324V37.822H44.8044ZM58.5293 37.714V33.772C57.9173 33.376 57.4433 32.896 57.1073 32.332C56.7713 31.768 56.6033 31.144 56.6033 30.46C56.6033 29.584 56.8613 28.816 57.3773 28.156C57.9053 27.496 58.6253 26.986 59.5373 26.626C60.4613 26.266 61.5053 26.086 62.6693 26.086C63.8333 26.086 64.8713 26.266 65.7833 26.626C66.7073 26.986 67.4273 27.496 67.9433 28.156C68.4713 28.816 68.7353 29.584 68.7353 30.46C68.7353 31.144 68.5673 31.768 68.2313 32.332C67.8953 32.896 67.4213 33.376 66.8093 33.772V37.714H70.0133V39.658H55.3433V37.714H58.5293ZM62.6693 27.958C61.5413 27.958 60.6413 28.18 59.9693 28.624C59.2973 29.068 58.9613 29.68 58.9613 30.46C58.9613 31.24 59.2973 31.852 59.9693 32.296C60.6413 32.74 61.5413 32.962 62.6693 32.962C63.7853 32.962 64.6793 32.74 65.3513 32.296C66.0233 31.852 66.3593 31.24 66.3593 30.46C66.3593 29.68 66.0233 29.068 65.3513 28.624C64.6793 28.18 63.7853 27.958 62.6693 27.958ZM64.3973 37.714V34.672C63.8213 34.768 63.2453 34.816 62.6693 34.816C62.0933 34.816 61.5173 34.768 60.9413 34.672V37.714H64.3973ZM74.3877 26.986V25.276H76.7817V26.986H79.9317V28.858H76.7817C76.8057 29.734 77.1297 30.526 77.7537 31.234C78.3777 31.942 79.3017 32.452 80.5257 32.764L79.4457 34.618C78.5577 34.39 77.7957 34.042 77.1597 33.574C76.5237 33.106 76.0197 32.548 75.6477 31.9C75.2757 32.644 74.7657 33.286 74.1177 33.826C73.4697 34.354 72.6897 34.75 71.7777 35.014L70.6617 33.142C71.8857 32.806 72.8037 32.248 73.4157 31.468C74.0397 30.676 74.3637 29.806 74.3877 28.858H71.2197V26.986H74.3877ZM81.9657 29.632V25.348H84.3597V35.104H81.9657V31.558H79.4997V29.632H81.9657ZM78.8697 35.374C80.5857 35.374 81.9357 35.644 82.9197 36.184C83.9157 36.724 84.4137 37.48 84.4137 38.452C84.4137 39.424 83.9157 40.18 82.9197 40.72C81.9357 41.272 80.5857 41.548 78.8697 41.548C77.1417 41.548 75.7797 41.272 74.7837 40.72C73.7877 40.18 73.2897 39.424 73.2897 38.452C73.2897 37.48 73.7877 36.724 74.7837 36.184C75.7797 35.644 77.1417 35.374 78.8697 35.374ZM78.8697 37.192C76.7577 37.192 75.7017 37.612 75.7017 38.452C75.7017 39.304 76.7577 39.73 78.8697 39.73C80.9817 39.73 82.0377 39.304 82.0377 38.452C82.0377 37.612 80.9817 37.192 78.8697 37.192Z" fill="white"/>
<path d="M26.708 55.372V56.356H24.32V57.424C24.32 58.008 24.436 58.588 24.668 59.164C24.9 59.732 25.224 60.244 25.64 60.7C26.064 61.148 26.544 61.488 27.08 61.72L26.42 62.656C25.812 62.376 25.276 61.964 24.812 61.42C24.348 60.876 23.992 60.252 23.744 59.548C23.496 60.308 23.136 60.988 22.664 61.588C22.2 62.18 21.664 62.62 21.056 62.908L20.384 61.984C20.912 61.736 21.384 61.368 21.8 60.88C22.224 60.392 22.552 59.844 22.784 59.236C23.016 58.628 23.132 58.024 23.132 57.424V56.356H20.756V55.372H26.708ZM29.144 54.316V64.936H27.968V54.316H29.144ZM39.1523 54.844V55.648C39.1523 56.232 39.1363 56.748 39.1043 57.196C39.0803 57.644 39.0083 58.152 38.8883 58.72H40.3643V59.68H30.7403V58.72H37.7243C37.8443 58.176 37.9203 57.688 37.9523 57.256C37.9843 56.816 38.0003 56.332 38.0003 55.804H31.9523V54.844H39.1523ZM39.1643 60.988V64.816H31.9043V60.988H39.1643ZM33.0563 61.924V63.868H38.0123V61.924H33.0563ZM47.0542 55.06C47.5982 55.06 48.0862 55.168 48.5182 55.384C48.9582 55.6 49.3022 55.904 49.5502 56.296C49.7982 56.68 49.9222 57.116 49.9222 57.604C49.9222 58.1 49.7982 58.54 49.5502 58.924C49.3022 59.308 48.9582 59.608 48.5182 59.824C48.0862 60.04 47.5982 60.148 47.0542 60.148C46.5022 60.148 46.0062 60.04 45.5662 59.824C45.1342 59.608 44.7942 59.308 44.5462 58.924C44.2982 58.54 44.1742 58.1 44.1742 57.604C44.1742 57.116 44.2982 56.68 44.5462 56.296C44.7942 55.904 45.1342 55.6 45.5662 55.384C46.0062 55.168 46.5022 55.06 47.0542 55.06ZM47.0542 56.08C46.5502 56.08 46.1342 56.22 45.8062 56.5C45.4862 56.772 45.3262 57.14 45.3262 57.604C45.3262 58.06 45.4862 58.432 45.8062 58.72C46.1342 59 46.5502 59.14 47.0542 59.14C47.5502 59.14 47.9582 59 48.2782 58.72C48.6062 58.432 48.7702 58.06 48.7702 57.604C48.7702 57.14 48.6102 56.772 48.2902 56.5C47.9702 56.22 47.5582 56.08 47.0542 56.08ZM52.3462 54.304V64.948H51.1702V54.304H52.3462ZM43.6702 61.72C45.0142 61.72 46.2382 61.7 47.3422 61.66C48.4542 61.612 49.5142 61.512 50.5222 61.36L50.6062 62.212C49.5662 62.412 48.4982 62.544 47.4022 62.608C46.3062 62.664 45.1102 62.692 43.8142 62.692L43.6702 61.72ZM57.6265 55.204V56.956C57.6265 57.58 57.7345 58.2 57.9505 58.816C58.1665 59.424 58.4705 59.972 58.8625 60.46C59.2625 60.94 59.7225 61.308 60.2425 61.564L59.5225 62.5C58.9625 62.204 58.4705 61.78 58.0465 61.228C57.6225 60.676 57.2945 60.044 57.0625 59.332C56.8225 60.1 56.4785 60.78 56.0305 61.372C55.5905 61.956 55.0745 62.4 54.4825 62.704L53.7745 61.744C54.3025 61.488 54.7705 61.108 55.1785 60.604C55.5865 60.1 55.9025 59.528 56.1265 58.888C56.3505 58.248 56.4625 57.604 56.4625 56.956V55.204H57.6265ZM62.1625 54.316V58.54H63.8305V59.524H62.1625V64.936H60.9745V54.316H62.1625ZM72.4707 54.304V58.528H74.0907V59.5H72.4707V64.936H71.2827V54.304H72.4707ZM69.6987 55.432C69.6987 57.056 69.3147 58.512 68.5467 59.8C67.7867 61.088 66.5747 62.148 64.9107 62.98L64.2507 62.08C66.8587 60.752 68.2787 58.856 68.5107 56.392H64.7787V55.432H69.6987ZM85.9047 54.316V59.8H84.7167V54.316H85.9047ZM85.9047 60.28V62.944H80.0727V63.904H86.2647V64.84H78.9087V62.092H84.7407V61.192H78.8847V60.28H85.9047ZM83.3127 55V55.924H82.3407V58.396L82.7967 58.36L83.7807 58.252L83.8527 59.092C82.2447 59.348 80.1087 59.484 77.4447 59.5L77.3247 58.54L78.5727 58.528V55.924H77.6007V55H83.3127ZM81.2007 58.456V55.924H79.7127V58.516L81.2007 58.456ZM89.7209 62.656V59.884C89.2889 59.644 88.9529 59.336 88.7129 58.96C88.4729 58.584 88.3529 58.164 88.3529 57.7C88.3529 57.148 88.5209 56.66 88.8569 56.236C89.1929 55.812 89.6529 55.488 90.2369 55.264C90.8289 55.032 91.5009 54.916 92.2529 54.916C93.0049 54.916 93.6769 55.032 94.2689 55.264C94.8609 55.488 95.3209 55.812 95.6489 56.236C95.9849 56.66 96.1529 57.148 96.1529 57.7C96.1529 58.164 96.0329 58.584 95.7929 58.96C95.5609 59.328 95.2289 59.636 94.7969 59.884V62.656H97.0769V63.616H87.4529V62.656H89.7209ZM92.2529 55.852C91.4369 55.852 90.7729 56.02 90.2609 56.356C89.7569 56.684 89.5049 57.132 89.5049 57.7C89.5049 58.268 89.7569 58.72 90.2609 59.056C90.7729 59.384 91.4369 59.548 92.2529 59.548C93.0689 59.548 93.7289 59.38 94.2329 59.044C94.7449 58.708 95.0009 58.26 95.0009 57.7C95.0009 57.14 94.7449 56.692 94.2329 56.356C93.7289 56.02 93.0689 55.852 92.2529 55.852ZM93.6209 62.656V60.328C93.2049 60.424 92.7489 60.472 92.2529 60.472C91.7729 60.472 91.3209 60.424 90.8969 60.328V62.656H93.6209ZM106.041 54.292V56.74H107.565V57.712H106.041V60.1H104.865V54.292H106.041ZM106.041 60.604V63.088H100.389V63.94H106.401V64.84H99.2372V62.26H104.877V61.48H99.2012V60.604H106.041ZM100.317 55.204V54.208H101.505V55.204H104.037V56.104H97.7852V55.204H100.317ZM100.905 56.5C101.689 56.5 102.313 56.656 102.777 56.968C103.249 57.28 103.485 57.704 103.485 58.24C103.485 58.768 103.249 59.188 102.777 59.5C102.305 59.812 101.681 59.968 100.905 59.968C100.129 59.968 99.5092 59.812 99.0452 59.5C98.5812 59.188 98.3492 58.768 98.3492 58.24C98.3492 57.704 98.5812 57.28 99.0452 56.968C99.5092 56.656 100.129 56.5 100.905 56.5ZM100.905 57.352C100.465 57.352 100.117 57.432 99.8612 57.592C99.6052 57.744 99.4772 57.96 99.4772 58.24C99.4772 58.512 99.6052 58.728 99.8612 58.888C100.117 59.048 100.465 59.128 100.905 59.128C101.345 59.128 101.693 59.048 101.949 58.888C102.213 58.728 102.345 58.512 102.345 58.24C102.345 57.96 102.213 57.744 101.949 57.592C101.693 57.432 101.345 57.352 100.905 57.352ZM117.675 54.52V58.564H118.731V54.316H119.847V64.936H118.731V59.512H117.675V64.42H116.571V54.52H117.675ZM113.163 55.624V56.572H111.999V61.264C112.439 61.232 112.847 61.172 113.223 61.084L113.307 62.056C112.715 62.184 112.063 62.248 111.351 62.248H110.907V55.624H113.163ZM115.935 55.624V56.572H114.675V61.264C115.211 61.232 115.691 61.164 116.115 61.06L116.223 62.032C115.839 62.12 115.483 62.18 115.155 62.212C114.827 62.236 114.463 62.248 114.063 62.248H113.607V55.624H115.935Z" fill="#D1D6D8"/>
<rect x="94" y="99.0714" width="47" height="66.0238" rx="4" fill="#D1D6D8"/>
<rect x="104" y="117.071" width="10" height="10" rx="1" fill="white"/>
<rect x="122" y="117.071" width="10" height="10" rx="1" fill="white"/>
<rect x="104" y="131.071" width="10" height="10" rx="1" fill="white"/>
<rect x="122" y="131.071" width="10" height="10" rx="1" fill="white"/>
<rect x="107.428" y="89" width="20.1429" height="20.1429" rx="2" fill="#1B7BE8"/>
<rect x="115.428" y="92" width="4" height="14" rx="1" fill="white"/>
<rect x="110.428" y="101" width="4" height="14" rx="1" transform="rotate(-90 110.428 101)" fill="white"/>
<rect x="111.905" y="148.31" width="11.1905" height="22.381" rx="5.59524" fill="#0E4E97"/>
</svg>
