<svg width="163" height="90" viewBox="0 0 163 90" fill="none" xmlns="http://www.w3.org/2000/svg">
<g clip-path="url(#clip0_118_824)">
<rect width="163" height="90" rx="8" fill="url(#paint0_linear_118_824)"/>
<path d="M24.128 21.376V22.048C24.128 22.624 24.3093 23.1947 24.672 23.76C25.0453 24.3147 25.6 24.8 26.336 25.216C27.0827 25.632 27.9893 25.9093 29.056 26.048L28.24 27.744C27.0027 27.5627 25.9413 27.2053 25.056 26.672C24.1707 26.1387 23.488 25.4773 23.008 24.688C22.528 25.4773 21.8453 26.1387 20.96 26.672C20.0747 27.2053 19.0133 27.5627 17.776 27.744L16.944 26.048C18.0107 25.9093 18.912 25.632 19.648 25.216C20.3947 24.8 20.9493 24.3147 21.312 23.76C21.6853 23.1947 21.872 22.624 21.872 22.048V21.376H24.128ZM29.504 28.768V30.496H24.016V35.376H21.888V30.496H16.48V28.768H29.504ZM42.1764 30.064V35.376H40.0484V31.76H32.3524V30.064H42.1764ZM42.1764 20.976V29.408H40.0484V20.976H42.1764ZM34.3364 21.744C35.0724 21.744 35.739 21.8987 36.3364 22.208C36.9337 22.5067 37.403 22.928 37.7444 23.472C38.0964 24.0053 38.2724 24.608 38.2724 25.28C38.2724 25.952 38.0964 26.56 37.7444 27.104C37.403 27.6373 36.9337 28.0587 36.3364 28.368C35.739 28.6667 35.0724 28.816 34.3364 28.816C33.6004 28.816 32.9337 28.6667 32.3364 28.368C31.739 28.0587 31.2697 27.6373 30.9284 27.104C30.587 26.56 30.4164 25.952 30.4164 25.28C30.4164 24.608 30.587 24.0053 30.9284 23.472C31.2697 22.928 31.739 22.5067 32.3364 22.208C32.9337 21.8987 33.6004 21.744 34.3364 21.744ZM34.3364 23.552C33.7924 23.552 33.3497 23.7067 33.0084 24.016C32.667 24.3147 32.4964 24.736 32.4964 25.28C32.4964 25.824 32.667 26.2507 33.0084 26.56C33.3497 26.8693 33.7924 27.024 34.3364 27.024C34.8804 27.024 35.323 26.8693 35.6644 26.56C36.0164 26.2507 36.1924 25.824 36.1924 25.28C36.1924 24.7467 36.0164 24.3253 35.6644 24.016C35.323 23.7067 34.8804 23.552 34.3364 23.552ZM60.4403 29.568V31.296H54.9843V35.392H52.8403V31.296H47.4163V29.568H60.4403ZM52.8403 22.592V21.008H54.9843V22.592H59.2723V24.272H55.0323C55.1176 24.6987 55.3523 25.1147 55.7363 25.52C56.1203 25.9253 56.6483 26.2827 57.3203 26.592C58.0029 26.8907 58.8136 27.0933 59.7523 27.2L59.0003 28.864C57.8163 28.736 56.7923 28.448 55.9283 28C55.0643 27.552 54.3923 26.9973 53.9123 26.336C53.4429 26.9973 52.7709 27.552 51.8963 28C51.0323 28.4373 50.0029 28.7253 48.8083 28.864L48.0723 27.2C49.0216 27.0933 49.8376 26.8907 50.5203 26.592C51.2029 26.2933 51.7309 25.9413 52.1043 25.536C52.4776 25.1307 52.7069 24.7093 52.7923 24.272H48.5843V22.592H52.8403ZM71.0646 24.368V20.976H73.2086V29.52H71.0646V26.096H68.9846V24.368H71.0646ZM69.3846 21.744V23.424H66.6006C66.622 24.3093 66.9046 25.12 67.4486 25.856C67.9926 26.592 68.7926 27.136 69.8486 27.488L68.7926 29.152C68.0353 28.9067 67.3846 28.544 66.8406 28.064C66.3073 27.5733 65.8806 26.9973 65.5606 26.336C65.2406 27.0613 64.7873 27.6907 64.2006 28.224C63.6246 28.7573 62.9313 29.1573 62.1206 29.424L61.0486 27.744C62.158 27.3813 62.9953 26.8107 63.5606 26.032C64.126 25.2427 64.4193 24.3733 64.4406 23.424H61.6246V21.744H69.3846ZM73.2086 30.16V35.376H71.0646V31.856H63.3686V30.16H73.2086Z" fill="black"/>
<path d="M98.4653 20.9999L141.204 24.3568L136.312 53.6365C135.533 58.3039 135.419 63.0584 135.976 67.7577L137.07 76.9894L132.678 88.1997L93 90.5802L93.7326 55.79L98.4653 20.9999Z" fill="#E5E8EB"/>
<path d="M101.774 25.2333L136.667 27.974L131.876 56.0526C131.364 59.0529 131.128 62.0935 131.169 65.1368L131.547 93.1508L96.6547 90.4101L97.2144 57.8217L101.774 25.2333Z" fill="#B0B8C1"/>
<circle cx="115.365" cy="59.3652" r="11.5" transform="rotate(4.49116 115.365 59.3652)" fill="#E5E8EB"/>
<path opacity="0.3" d="M128.241 91.8637C131.794 92.1427 135.722 80.5967 137.264 74.5169C134.777 80.1681 126.516 81.3196 122.675 81.4608L121.897 91.3654L128.241 91.8637Z" fill="url(#paint1_linear_118_824)"/>
<path d="M129.99 90.4965C132.782 90.7157 135.872 81.5964 137.068 77.0093C135.129 81.2705 128.61 82.5306 125.593 82.628L125.006 90.105L129.99 90.4965Z" fill="#E5E8EB"/>
</g>
<defs>
<linearGradient id="paint0_linear_118_824" x1="81.5" y1="-4.10212e-06" x2="157.5" y2="88.5" gradientUnits="userSpaceOnUse">
<stop stop-color="#E5E8EB"/>
<stop offset="1" stop-color="#B2B5B8"/>
</linearGradient>
<linearGradient id="paint1_linear_118_824" x1="123.868" y1="80.0303" x2="129.001" y2="91.8591" gradientUnits="userSpaceOnUse">
<stop stop-color="#121212" stop-opacity="0"/>
<stop offset="1" stop-color="#121212"/>
</linearGradient>
<clipPath id="clip0_118_824">
<rect width="163" height="90" rx="8" fill="white"/>
</clipPath>
</defs>
</svg>
