<svg width="163" height="90" viewBox="0 0 163 90" fill="none" xmlns="http://www.w3.org/2000/svg">
<g clip-path="url(#clip0_97_533)">
<rect width="163" height="90" rx="8" fill="#E5E8EB"/>
<rect width="163" height="90" rx="8" fill="url(#paint0_linear_97_533)"/>
<path d="M19.312 31.968V28.464C18.768 28.112 18.3467 27.6853 18.048 27.184C17.7493 26.6827 17.6 26.128 17.6 25.52C17.6 24.7413 17.8293 24.0587 18.288 23.472C18.7573 22.8853 19.3973 22.432 20.208 22.112C21.0293 21.792 21.9573 21.632 22.992 21.632C24.0267 21.632 24.9493 21.792 25.76 22.112C26.5813 22.432 27.2213 22.8853 27.68 23.472C28.1493 24.0587 28.384 24.7413 28.384 25.52C28.384 26.128 28.2347 26.6827 27.936 27.184C27.6373 27.6853 27.216 28.112 26.672 28.464V31.968H29.52V33.696H16.48V31.968H19.312ZM22.992 23.296C21.9893 23.296 21.1893 23.4933 20.592 23.888C19.9947 24.2827 19.696 24.8267 19.696 25.52C19.696 26.2133 19.9947 26.7573 20.592 27.152C21.1893 27.5467 21.9893 27.744 22.992 27.744C23.984 27.744 24.7787 27.5467 25.376 27.152C25.9733 26.7573 26.272 26.2133 26.272 25.52C26.272 24.8267 25.9733 24.2827 25.376 23.888C24.7787 23.4933 23.984 23.296 22.992 23.296ZM24.528 31.968V29.264C24.016 29.3493 23.504 29.392 22.992 29.392C22.48 29.392 21.968 29.3493 21.456 29.264V31.968H24.528ZM33.4084 22.432V20.912H35.5364V22.432H38.3364V24.096H35.5364C35.5577 24.8747 35.8457 25.5787 36.4004 26.208C36.955 26.8373 37.7764 27.2907 38.8644 27.568L37.9044 29.216C37.115 29.0133 36.4377 28.704 35.8724 28.288C35.307 27.872 34.859 27.376 34.5284 26.8C34.1977 27.4613 33.7444 28.032 33.1684 28.512C32.5924 28.9813 31.899 29.3333 31.0884 29.568L30.0964 27.904C31.1844 27.6053 32.0004 27.1093 32.5444 26.416C33.099 25.712 33.387 24.9387 33.4084 24.096H30.5924V22.432H33.4084ZM40.1444 24.784V20.976H42.2724V29.648H40.1444V26.496H37.9524V24.784H40.1444ZM37.3924 29.888C38.9177 29.888 40.1177 30.128 40.9924 30.608C41.8777 31.088 42.3204 31.76 42.3204 32.624C42.3204 33.488 41.8777 34.16 40.9924 34.64C40.1177 35.1307 38.9177 35.376 37.3924 35.376C35.8564 35.376 34.6457 35.1307 33.7604 34.64C32.875 34.16 32.4324 33.488 32.4324 32.624C32.4324 31.76 32.875 31.088 33.7604 30.608C34.6457 30.128 35.8564 29.888 37.3924 29.888ZM37.3924 31.504C35.515 31.504 34.5764 31.8773 34.5764 32.624C34.5764 33.3813 35.515 33.76 37.3924 33.76C39.2697 33.76 40.2084 33.3813 40.2084 32.624C40.2084 31.8773 39.2697 31.504 37.3924 31.504ZM59.7363 20.96V35.36H57.7203V28.192H56.4883V34.672H54.5043V21.216H56.4883V26.496H57.7203V20.96H59.7363ZM50.0883 22.544V30.048C51.3469 29.9947 52.5629 29.8613 53.7363 29.648L53.9283 31.472C52.3923 31.7493 50.7389 31.888 48.9683 31.888H47.9603V22.544H50.0883ZM73.2086 30.128V35.376H71.0806V31.808H63.3846V30.128H73.2086ZM73.2086 20.976V29.488H71.0806V27.712H67.9766C67.6246 28.0747 67.2033 28.3573 66.7126 28.56C66.222 28.7627 65.694 28.864 65.1286 28.864C64.414 28.864 63.7633 28.7093 63.1766 28.4C62.6006 28.0907 62.1473 27.664 61.8166 27.12C61.486 26.576 61.3206 25.9627 61.3206 25.28C61.3206 24.608 61.486 24 61.8166 23.456C62.1473 22.912 62.6006 22.4853 63.1766 22.176C63.7633 21.8667 64.414 21.712 65.1286 21.712C65.7046 21.712 66.238 21.8133 66.7286 22.016C67.2193 22.2187 67.6406 22.5067 67.9926 22.88H71.0806V20.976H73.2086ZM65.1286 23.52C64.606 23.52 64.174 23.68 63.8326 24C63.502 24.3093 63.3366 24.736 63.3366 25.28C63.3366 25.8347 63.502 26.272 63.8326 26.592C64.174 26.9013 64.606 27.056 65.1286 27.056C65.6513 27.056 66.078 26.9013 66.4086 26.592C66.7393 26.272 66.9046 25.8347 66.9046 25.28C66.9046 24.736 66.7393 24.3093 66.4086 24C66.078 23.68 65.6513 23.52 65.1286 23.52ZM71.0806 26V24.592H68.8726C68.9153 24.7947 68.9366 25.024 68.9366 25.28C68.9366 25.5573 68.9153 25.7973 68.8726 26H71.0806Z" fill="black"/>
<rect x="89.5999" y="40.9381" width="50" height="62" rx="4" transform="rotate(-11.5354 89.5999 40.9381)" fill="#B0B8C1"/>
<rect x="96" y="44.9662" width="39.8363" height="55.9606" transform="rotate(-11.5354 96 44.9662)" fill="white"/>
<rect x="101" y="36.0599" width="25.3028" height="10.5218" rx="2" transform="rotate(-11.5354 101 36.0599)" fill="#8B95A1"/>
<path d="M106.209 38.5764L121.422 35.4715" stroke="#D1D6D8" stroke-width="1.5" stroke-linecap="round"/>
<path d="M106.868 41.9212L122.082 38.8163" stroke="#D1D6D8" stroke-width="1.5" stroke-linecap="round"/>
</g>
<defs>
<linearGradient id="paint0_linear_97_533" x1="81.5" y1="-4.10212e-06" x2="157.5" y2="88.5" gradientUnits="userSpaceOnUse">
<stop stop-color="#E5E8EB"/>
<stop offset="1" stop-color="#B2B5B8"/>
</linearGradient>
<clipPath id="clip0_97_533">
<rect width="163" height="90" rx="8" fill="white"/>
</clipPath>
</defs>
</svg>
