<svg width="335" height="176" viewBox="0 0 335 176" fill="none" xmlns="http://www.w3.org/2000/svg">
<g clip-path="url(#clip0_280_1171)">
<rect width="335" height="176" rx="8" fill="white"/>
<rect width="335" height="176" rx="8" fill="url(#paint0_linear_280_1171)"/>
<path opacity="0.07" d="M223.689 -10.7715C246.782 -18.9241 267.686 -17.4281 286.38 -6.29137C305.069 4.84451 318.923 23.1974 327.948 48.7606L350.422 112.42C355.831 127.741 347.811 144.541 332.507 149.944C317.205 155.346 300.415 147.304 295.007 131.984L272.532 68.3242C268.231 56.1389 262.094 47.2853 254.131 41.7657C246.412 36.1641 238.302 34.8654 229.795 37.8674C221.533 40.7844 216.036 47.2887 213.312 57.3845C210.749 67.1565 211.406 77.5435 215.287 88.5341L237.759 152.188C243.169 167.512 235.146 184.316 219.84 189.72C204.534 195.123 187.74 187.08 182.33 171.756L159.858 108.102C155.556 95.917 149.545 87.019 141.826 81.4137C134.109 75.8123 126.12 74.4695 117.859 77.385C113.447 78.9426 110.018 82.0185 107.075 85.1761L92.3881 43.5749C92.6764 43.2291 92.9503 42.8724 93.2479 42.5343C99.265 35.5737 106.409 30.6331 114.673 27.7153C124.15 24.3694 134.69 24.411 146.286 27.8386C157.884 31.2673 168.294 36.7326 177.502 44.2298C181.262 32.4235 187.428 21.2448 196.004 10.6929C204.738 -0.181968 213.966 -7.33802 223.689 -10.7715ZM133.447 180.992C139.27 197.487 130.635 215.578 114.159 221.395C97.6833 227.211 79.6052 218.554 73.781 202.056L57.9643 157.254L76.1154 150.846C93.728 144.627 105.769 129.632 109.214 112.35L133.447 180.992ZM37.4966 4.24261C53.9708 -1.57323 72.049 7.08572 77.8741 23.5786L98.9637 83.3164C99.0698 83.6169 99.1566 83.9288 99.2531 84.2305C99.3096 84.3784 99.3877 84.5175 99.4404 84.6667C108.176 109.411 95.222 136.541 70.5087 145.267L25.7605 161.064C9.28465 166.881 -8.79317 158.225 -14.617 141.728C-20.4387 125.234 -11.8035 107.145 4.67155 101.328L34.5025 90.7969L18.2084 44.6427C12.3882 28.1481 21.0226 10.0586 37.4966 4.24261Z" fill="url(#paint1_linear_280_1171)"/>
<path d="M25.312 67.448H30.832V76.36H25.312V67.448ZM29.584 68.504H26.56V75.304H29.584V68.504ZM35.824 65.768H37.104V80.248H35.824V65.768ZM30.176 71.224H33.504V72.312H30.176V71.224ZM32.944 66.072H34.208V79.512H32.944V66.072ZM49.7908 65.768H51.1188V80.264H49.7908V65.768ZM40.2068 75.544H41.3748C42.3348 75.544 43.1988 75.5333 43.9668 75.512C44.7348 75.4907 45.4601 75.4427 46.1428 75.368C46.8361 75.2933 47.5401 75.192 48.2548 75.064L48.3828 76.184C47.6574 76.3227 46.9428 76.4293 46.2388 76.504C45.5348 76.568 44.7934 76.616 44.0148 76.648C43.2361 76.6693 42.3561 76.68 41.3748 76.68H40.2068V75.544ZM40.2068 67.144H47.0388V68.248H41.5348V75.96H40.2068V67.144ZM53.7575 77.288H66.8775V78.392H53.7575V77.288ZM59.6295 73.544H60.9415V77.592H59.6295V73.544ZM55.2935 66.968H65.2775V73.784H55.2935V66.968ZM63.9815 68.04H56.5895V72.728H63.9815V68.04ZM76.3291 67.016H77.4171V69.608C77.4171 70.408 77.3158 71.192 77.1131 71.96C76.9211 72.728 76.6438 73.448 76.2811 74.12C75.9185 74.792 75.4918 75.3893 75.0011 75.912C74.5105 76.4347 73.9771 76.8507 73.4011 77.16L72.5851 76.088C73.1185 75.8213 73.6091 75.464 74.0571 75.016C74.5158 74.5573 74.9158 74.0347 75.2571 73.448C75.5985 72.8613 75.8598 72.2427 76.0411 71.592C76.2331 70.9307 76.3291 70.2693 76.3291 69.608V67.016ZM76.5691 67.016H77.6411V69.608C77.6411 70.248 77.7318 70.8827 77.9131 71.512C78.1051 72.1413 78.3718 72.7333 78.7131 73.288C79.0545 73.8427 79.4438 74.3387 79.8811 74.776C80.3291 75.2133 80.8091 75.56 81.3211 75.816L80.5051 76.872C79.9398 76.584 79.4171 76.1893 78.9371 75.688C78.4678 75.1867 78.0518 74.616 77.6891 73.976C77.3371 73.3253 77.0598 72.632 76.8571 71.896C76.6651 71.1493 76.5691 70.3867 76.5691 69.608V67.016ZM82.5851 65.768H83.9131V80.248H82.5851V65.768ZM83.6091 71.624H86.2811V72.76H83.6091V71.624ZM90.4879 70.68H91.8159V73.4H90.4879V70.68ZM95.7999 70.68H97.1119V73.4H95.7999V70.68ZM87.2719 72.92H100.344V73.992H87.2719V72.92ZM93.7999 75.096C95.3465 75.096 96.5572 75.3147 97.4319 75.752C98.3065 76.1893 98.7439 76.8187 98.7439 77.64C98.7439 78.472 98.3065 79.1067 97.4319 79.544C96.5572 79.992 95.3465 80.216 93.7999 80.216C92.2532 80.216 91.0372 79.992 90.1519 79.544C89.2772 79.1067 88.8399 78.472 88.8399 77.64C88.8399 76.8187 89.2772 76.1893 90.1519 75.752C91.0372 75.3147 92.2532 75.096 93.7999 75.096ZM93.7999 76.12C93.0425 76.12 92.3919 76.1787 91.8479 76.296C91.3145 76.4133 90.9039 76.5893 90.6159 76.824C90.3279 77.048 90.1839 77.32 90.1839 77.64C90.1839 77.9813 90.3279 78.2693 90.6159 78.504C90.9039 78.728 91.3145 78.8987 91.8479 79.016C92.3919 79.1333 93.0425 79.192 93.7999 79.192C94.5572 79.192 95.2025 79.1333 95.7359 79.016C96.2799 78.8987 96.6959 78.728 96.9839 78.504C97.2719 78.2693 97.4159 77.9813 97.4159 77.64C97.4159 77.32 97.2719 77.048 96.9839 76.824C96.6959 76.5893 96.2799 76.4133 95.7359 76.296C95.2025 76.1787 94.5572 76.12 93.7999 76.12ZM93.7999 66.04C94.8452 66.04 95.7465 66.1467 96.5039 66.36C97.2719 66.5733 97.8585 66.8827 98.2639 67.288C98.6799 67.6827 98.8879 68.1627 98.8879 68.728C98.8879 69.2827 98.6799 69.7627 98.2639 70.168C97.8585 70.5733 97.2719 70.8827 96.5039 71.096C95.7465 71.2987 94.8452 71.4 93.7999 71.4C92.7545 71.4 91.8479 71.2987 91.0799 71.096C90.3225 70.8827 89.7359 70.5733 89.3199 70.168C88.9145 69.7627 88.7119 69.2827 88.7119 68.728C88.7119 68.1627 88.9145 67.6827 89.3199 67.288C89.7359 66.8827 90.3225 66.5733 91.0799 66.36C91.8479 66.1467 92.7545 66.04 93.7999 66.04ZM93.7999 67.08C93.0425 67.08 92.3812 67.144 91.8159 67.272C91.2612 67.4 90.8292 67.5867 90.5199 67.832C90.2212 68.0773 90.0719 68.376 90.0719 68.728C90.0719 69.0693 90.2212 69.368 90.5199 69.624C90.8292 69.8693 91.2612 70.056 91.8159 70.184C92.3812 70.312 93.0425 70.376 93.7999 70.376C94.5785 70.376 95.2452 70.312 95.7999 70.184C96.3545 70.056 96.7812 69.8693 97.0799 69.624C97.3785 69.368 97.5279 69.0693 97.5279 68.728C97.5279 68.376 97.3785 68.0773 97.0799 67.832C96.7812 67.5867 96.3545 67.4 95.7999 67.272C95.2452 67.144 94.5785 67.08 93.7999 67.08ZM102.455 66.52H103.783V68.728H107.687V66.52H108.999V73.144H102.455V66.52ZM103.783 69.784V72.056H107.687V69.784H103.783ZM108.631 69.32H112.711V70.424H108.631V69.32ZM112.327 65.768H113.655V73.672H112.327V65.768ZM104.391 74.376H105.703V76.12H112.327V74.376H113.639V80.04H104.391V74.376ZM105.703 77.176V78.952H112.327V77.176H105.703ZM130.69 65.768H132.018V73.128H130.69V65.768ZM131.426 68.888H134.146V69.992H131.426V68.888ZM122.818 73.816H132.018V77.368H124.162V79.544H122.866V76.376H130.706V74.872H122.818V73.816ZM122.866 78.984H132.53V80.056H122.866V78.984ZM124.786 66.296C125.512 66.296 126.152 66.4293 126.706 66.696C127.272 66.9627 127.714 67.3413 128.034 67.832C128.354 68.312 128.514 68.872 128.514 69.512C128.514 70.1413 128.354 70.7013 128.034 71.192C127.714 71.672 127.272 72.0507 126.706 72.328C126.152 72.5947 125.512 72.728 124.786 72.728C124.072 72.728 123.432 72.5947 122.866 72.328C122.301 72.0507 121.853 71.672 121.522 71.192C121.202 70.7013 121.042 70.136 121.042 69.496C121.042 68.8667 121.202 68.312 121.522 67.832C121.853 67.3413 122.301 66.9627 122.866 66.696C123.432 66.4293 124.072 66.296 124.786 66.296ZM124.786 67.384C124.317 67.384 123.896 67.4747 123.522 67.656C123.16 67.8373 122.872 68.088 122.658 68.408C122.445 68.7173 122.338 69.0853 122.338 69.512C122.338 69.928 122.445 70.296 122.658 70.616C122.872 70.936 123.16 71.192 123.522 71.384C123.896 71.5653 124.317 71.656 124.786 71.656C125.256 71.656 125.672 71.5653 126.034 71.384C126.408 71.192 126.701 70.936 126.914 70.616C127.128 70.296 127.234 69.928 127.234 69.512C127.234 69.0853 127.128 68.7173 126.914 68.408C126.701 68.088 126.408 67.8373 126.034 67.656C125.672 67.4747 125.256 67.384 124.786 67.384ZM139.105 66.888C139.82 66.888 140.449 67.096 140.993 67.512C141.537 67.9173 141.964 68.4987 142.273 69.256C142.582 70.0133 142.737 70.904 142.737 71.928C142.737 72.952 142.582 73.8427 142.273 74.6C141.964 75.3573 141.537 75.944 140.993 76.36C140.449 76.776 139.82 76.984 139.105 76.984C138.401 76.984 137.772 76.776 137.217 76.36C136.673 75.944 136.246 75.3573 135.937 74.6C135.628 73.8427 135.473 72.952 135.473 71.928C135.473 70.904 135.628 70.0133 135.937 69.256C136.246 68.4987 136.673 67.9173 137.217 67.512C137.772 67.096 138.401 66.888 139.105 66.888ZM139.105 68.072C138.646 68.072 138.236 68.232 137.873 68.552C137.521 68.8613 137.244 69.3093 137.041 69.896C136.838 70.472 136.737 71.1493 136.737 71.928C136.737 72.7067 136.838 73.3893 137.041 73.976C137.244 74.552 137.521 75 137.873 75.32C138.236 75.64 138.652 75.8 139.121 75.8C139.58 75.8 139.985 75.64 140.337 75.32C140.7 75 140.977 74.552 141.169 73.976C141.372 73.3893 141.473 72.7067 141.473 71.928C141.473 71.1493 141.372 70.472 141.169 69.896C140.977 69.3093 140.7 68.8613 140.337 68.552C139.985 68.232 139.574 68.072 139.105 68.072ZM145.057 65.768H146.385V80.248H145.057V65.768ZM146.081 71.544H148.753V72.664H146.081V71.544ZM149.744 77.304H162.864V78.408H149.744V77.304ZM155.616 73.832H156.928V77.624H155.616V73.832ZM151.28 66.792H152.608V69.368H159.968V66.792H161.28V74.2H151.28V66.792ZM152.608 70.456V73.112H159.968V70.456H152.608ZM174.767 65.768H176.095V80.248H174.767V65.768ZM170.527 67.336H171.839C171.839 68.3813 171.711 69.3893 171.455 70.36C171.209 71.3307 170.82 72.2533 170.287 73.128C169.753 73.992 169.06 74.7973 168.207 75.544C167.353 76.2907 166.319 76.9573 165.103 77.544L164.399 76.472C165.796 75.8 166.948 75.016 167.855 74.12C168.761 73.224 169.433 72.2267 169.871 71.128C170.308 70.0187 170.527 68.824 170.527 67.544V67.336ZM165.071 67.336H171.087V68.408H165.071V67.336Z" fill="white"/>
<path d="M188 68L194 74L188 80" stroke="white" stroke-width="2" stroke-linecap="round" stroke-linejoin="round"/>
<path d="M30.648 120.144V121.092H28.356V121.5C28.356 122.196 28.588 122.84 29.052 123.432C29.524 124.016 30.164 124.44 30.972 124.704L30.36 125.616C29.76 125.424 29.24 125.128 28.8 124.728C28.36 124.328 28.02 123.86 27.78 123.324C27.54 123.9 27.192 124.408 26.736 124.848C26.288 125.28 25.752 125.604 25.128 125.82L24.528 124.896C25.344 124.616 25.984 124.164 26.448 123.54C26.92 122.916 27.156 122.236 27.156 121.5V121.092H24.852V120.144H30.648ZM33.18 119.328V127.056H31.98V119.328H33.18ZM27.432 126.336V128.76H33.48V129.72H26.256V126.336H27.432ZM37.3323 127.704V125.844H35.9043V122.448H42.0483V120.996H35.8803V120.06H43.2123V123.372H37.0683V124.884H43.4523V125.844H41.8683V127.704H44.3643V128.664H34.7403V127.704H37.3323ZM40.7163 127.704V125.844H38.4963V127.704H40.7163ZM49.9022 127.656V124.884C49.4702 124.644 49.1342 124.336 48.8942 123.96C48.6542 123.584 48.5342 123.164 48.5342 122.7C48.5342 122.148 48.7022 121.66 49.0382 121.236C49.3742 120.812 49.8342 120.488 50.4182 120.264C51.0102 120.032 51.6822 119.916 52.4342 119.916C53.1862 119.916 53.8582 120.032 54.4502 120.264C55.0422 120.488 55.5022 120.812 55.8302 121.236C56.1662 121.66 56.3342 122.148 56.3342 122.7C56.3342 123.164 56.2142 123.584 55.9742 123.96C55.7422 124.328 55.4102 124.636 54.9782 124.884V127.656H57.2582V128.616H47.6342V127.656H49.9022ZM52.4342 120.852C51.6182 120.852 50.9542 121.02 50.4422 121.356C49.9382 121.684 49.6862 122.132 49.6862 122.7C49.6862 123.268 49.9382 123.72 50.4422 124.056C50.9542 124.384 51.6182 124.548 52.4342 124.548C53.2502 124.548 53.9102 124.38 54.4142 124.044C54.9262 123.708 55.1822 123.26 55.1822 122.7C55.1822 122.14 54.9262 121.692 54.4142 121.356C53.9102 121.02 53.2502 120.852 52.4342 120.852ZM53.8022 127.656V125.328C53.3862 125.424 52.9302 125.472 52.4342 125.472C51.9542 125.472 51.5022 125.424 51.0782 125.328V127.656H53.8022ZM60.4865 120.528V119.268H61.6625V120.528H63.9065V121.464H61.6625V121.572C61.6625 122.204 61.8905 122.784 62.3465 123.312C62.8105 123.832 63.4425 124.204 64.2425 124.428L63.7025 125.34C63.1025 125.172 62.5785 124.912 62.1305 124.56C61.6905 124.2 61.3465 123.78 61.0985 123.3C60.8585 123.844 60.5145 124.316 60.0665 124.716C59.6265 125.116 59.0985 125.412 58.4825 125.604L57.9185 124.68C58.7105 124.44 59.3345 124.036 59.7905 123.468C60.2545 122.892 60.4865 122.26 60.4865 121.572V121.464H58.2185V120.528H60.4865ZM65.5505 122.268V119.316H66.7265V125.736H65.5505V123.228H63.5945V122.268H65.5505ZM63.1985 125.988C64.3105 125.988 65.1825 126.16 65.8145 126.504C66.4465 126.848 66.7625 127.328 66.7625 127.944C66.7625 128.568 66.4465 129.052 65.8145 129.396C65.1825 129.748 64.3105 129.924 63.1985 129.924C62.0865 129.924 61.2105 129.748 60.5705 129.396C59.9305 129.052 59.6105 128.568 59.6105 127.944C59.6105 127.328 59.9305 126.848 60.5705 126.504C61.2105 126.16 62.0865 125.988 63.1985 125.988ZM63.1985 126.888C62.4305 126.888 61.8385 126.98 61.4225 127.164C61.0065 127.348 60.7985 127.608 60.7985 127.944C60.7985 128.288 61.0065 128.552 61.4225 128.736C61.8385 128.92 62.4305 129.012 63.1985 129.012C63.9585 129.012 64.5465 128.92 64.9625 128.736C65.3865 128.552 65.5985 128.288 65.5985 127.944C65.5985 127.608 65.3865 127.348 64.9625 127.164C64.5465 126.98 63.9585 126.888 63.1985 126.888ZM74.1187 120.432V121.116C74.1187 121.804 74.0987 122.464 74.0587 123.096C74.0267 123.728 73.9467 124.456 73.8187 125.28L72.6547 125.184C72.7747 124.44 72.8547 123.768 72.8947 123.168C72.9347 122.568 72.9547 121.972 72.9547 121.38H68.7187V120.432H74.1187ZM71.4187 123.48V126.66C72.6587 126.62 73.7547 126.54 74.7067 126.42L74.7667 127.272C73.1187 127.544 70.9547 127.68 68.2747 127.68L68.1427 126.708L70.2667 126.696V123.48H71.4187ZM76.4587 119.316V123.696H78.0667V124.68H76.4587V129.936H75.2947V119.316H76.4587ZM86.5687 119.676V120.228C86.5687 120.684 86.7327 121.128 87.0607 121.56C87.3967 121.992 87.8487 122.36 88.4167 122.664C88.9927 122.968 89.6287 123.168 90.3247 123.264L89.8567 124.2C88.9847 124.064 88.2007 123.784 87.5047 123.36C86.8167 122.928 86.3007 122.404 85.9567 121.788C85.6207 122.404 85.1047 122.928 84.4087 123.36C83.7127 123.784 82.9247 124.064 82.0447 124.2L81.5767 123.264C82.2807 123.168 82.9167 122.968 83.4847 122.664C84.0607 122.36 84.5127 121.996 84.8407 121.572C85.1687 121.14 85.3327 120.692 85.3327 120.228V119.676H86.5687ZM90.7447 125.22V126.192H86.5087V129.936H85.3327V126.192H81.1447V125.22H90.7447ZM100.189 126.144V129.936H99.0009V127.104H93.0489V126.144H100.189ZM100.189 119.316V125.592H99.0009V119.316H100.189ZM94.4649 119.928C95.0009 119.928 95.4809 120.036 95.9049 120.252C96.3289 120.468 96.6609 120.772 96.9009 121.164C97.1489 121.548 97.2729 121.984 97.2729 122.472C97.2729 122.968 97.1529 123.408 96.9129 123.792C96.6729 124.176 96.3369 124.476 95.9049 124.692C95.4809 124.908 95.0009 125.016 94.4649 125.016C93.9369 125.016 93.4569 124.908 93.0249 124.692C92.6009 124.476 92.2649 124.176 92.0169 123.792C91.7769 123.4 91.6569 122.96 91.6569 122.472C91.6569 121.984 91.7769 121.548 92.0169 121.164C92.2649 120.772 92.6009 120.468 93.0249 120.252C93.4569 120.036 93.9369 119.928 94.4649 119.928ZM94.4649 120.936C93.9769 120.936 93.5769 121.076 93.2649 121.356C92.9529 121.636 92.7969 122.008 92.7969 122.472C92.7969 122.944 92.9529 123.324 93.2649 123.612C93.5769 123.892 93.9769 124.032 94.4649 124.032C94.9529 124.032 95.3529 123.892 95.6649 123.612C95.9769 123.324 96.1329 122.944 96.1329 122.472C96.1329 122.008 95.9769 121.636 95.6649 121.356C95.3529 121.076 94.9529 120.936 94.4649 120.936ZM113.947 125.712V126.684H109.735V129.948H108.547V126.684H104.347V125.712H113.947ZM108.547 120.588V119.328H109.735V120.588H113.047V121.536H109.735C109.767 121.92 109.943 122.292 110.263 122.652C110.591 123.004 111.023 123.308 111.559 123.564C112.103 123.82 112.707 123.992 113.371 124.08L112.951 125.004C112.103 124.892 111.343 124.652 110.671 124.284C109.999 123.908 109.491 123.452 109.147 122.916C108.795 123.452 108.283 123.904 107.611 124.272C106.939 124.64 106.175 124.884 105.319 125.004L104.911 124.08C105.575 123.992 106.175 123.824 106.711 123.576C107.255 123.32 107.687 123.012 108.007 122.652C108.335 122.292 108.515 121.92 108.547 121.536H105.247V120.588H108.547ZM122.251 121.992V119.316H123.427V125.652H122.251V122.964H120.355V121.992H122.251ZM120.679 119.988V120.936H118.435V121.176C118.435 121.856 118.659 122.492 119.107 123.084C119.555 123.668 120.171 124.096 120.955 124.368L120.367 125.292C119.783 125.092 119.279 124.796 118.855 124.404C118.431 124.004 118.103 123.536 117.871 123C117.639 123.584 117.299 124.096 116.851 124.536C116.403 124.976 115.867 125.304 115.243 125.52L114.643 124.596C115.451 124.316 116.087 123.864 116.551 123.24C117.015 122.608 117.247 121.92 117.247 121.176V120.936H114.991V119.988H120.679ZM123.427 126.192V129.936H122.251V127.152H116.287V126.192H123.427ZM129.763 119.496C130.955 119.496 131.883 119.652 132.547 119.964C133.211 120.276 133.543 120.728 133.543 121.32C133.543 121.904 133.211 122.356 132.547 122.676C131.883 122.988 130.955 123.144 129.763 123.144C128.571 123.144 127.643 122.988 126.979 122.676C126.315 122.356 125.983 121.904 125.983 121.32C125.983 120.728 126.311 120.276 126.967 119.964C127.631 119.652 128.563 119.496 129.763 119.496ZM129.763 120.36C128.931 120.36 128.295 120.444 127.855 120.612C127.415 120.772 127.195 121.008 127.195 121.32C127.195 121.632 127.415 121.868 127.855 122.028C128.295 122.188 128.931 122.268 129.763 122.268C130.587 122.268 131.219 122.188 131.659 122.028C132.099 121.868 132.319 121.632 132.319 121.32C132.319 121.008 132.099 120.772 131.659 120.612C131.219 120.444 130.587 120.36 129.763 120.36ZM134.551 123.78V124.728H124.963V123.78H134.551ZM133.351 125.508V128.028H127.279V128.94H133.651V129.84H126.127V127.188H132.187V126.396H126.091V125.508H133.351ZM28.884 138.492V141.264H30.24V137.532H31.344V147.42H30.24V142.224H28.884V145.164H24.792V138.492H28.884ZM25.884 139.416V144.24H27.78V139.416H25.884ZM33.48 137.316V147.936H32.364V137.316H33.48ZM43.4643 137.316V147.96H42.2883V137.316H43.4643ZM40.4643 138.3V139.272H36.5763V144.372C37.6083 144.372 38.4763 144.348 39.1803 144.3C39.8843 144.252 40.5883 144.16 41.2923 144.024L41.4003 145.008C40.6643 145.152 39.9243 145.248 39.1803 145.296C38.4443 145.336 37.4803 145.356 36.2883 145.356H35.4123V138.3H40.4643ZM49.2606 145.656V143.232H46.1286V138.156H53.5446V143.232H50.4246V145.656H54.6726V146.616H45.0486V145.656H49.2606ZM47.2806 139.092V142.296H52.3926V139.092H47.2806ZM64.4048 137.316V147.936H63.2888V137.316H64.4048ZM62.2568 137.532V147.42H61.1528V142.32H60.0128C59.9648 143.36 59.7368 144.18 59.3288 144.78C58.9208 145.372 58.3888 145.668 57.7328 145.668C57.2768 145.668 56.8768 145.516 56.5328 145.212C56.1888 144.908 55.9248 144.472 55.7408 143.904C55.5568 143.336 55.4648 142.668 55.4648 141.9C55.4648 141.132 55.5568 140.468 55.7408 139.908C55.9248 139.34 56.1888 138.904 56.5328 138.6C56.8768 138.296 57.2768 138.144 57.7328 138.144C58.3728 138.144 58.8968 138.432 59.3048 139.008C59.7128 139.576 59.9488 140.36 60.0128 141.36H61.1528V137.532H62.2568ZM57.7328 139.26C57.3568 139.26 57.0648 139.492 56.8568 139.956C56.6488 140.412 56.5448 141.06 56.5448 141.9C56.5448 142.74 56.6488 143.396 56.8568 143.868C57.0648 144.332 57.3568 144.564 57.7328 144.564C58.1088 144.564 58.4048 144.332 58.6208 143.868C58.8368 143.396 58.9448 142.74 58.9448 141.9C58.9448 141.068 58.8368 140.42 58.6208 139.956C58.4048 139.492 58.1088 139.26 57.7328 139.26ZM73.2851 140.82V137.304H74.4491V147.948H73.2851V141.768H70.9811V140.82H73.2851ZM69.4811 138.192V139.956C69.4811 140.612 69.5891 141.252 69.8051 141.876C70.0211 142.492 70.3291 143.04 70.7291 143.52C71.1291 144 71.5971 144.36 72.1331 144.6L71.4371 145.548C70.8531 145.26 70.3411 144.84 69.9011 144.288C69.4691 143.728 69.1331 143.084 68.8931 142.356C68.6531 143.124 68.3131 143.804 67.8731 144.396C67.4331 144.98 66.9171 145.424 66.3251 145.728L65.5931 144.792C66.1291 144.528 66.6011 144.144 67.0091 143.64C67.4171 143.136 67.7331 142.564 67.9571 141.924C68.1811 141.276 68.2931 140.62 68.2931 139.956V138.192H69.4811ZM80.947 144.672V146.76H87.079V147.72H79.771V144.672H80.947ZM82.759 142.956V141.264H83.935V142.956H88.171V143.892H78.559V142.956H82.759ZM83.947 137.604V138.024C83.947 138.488 84.103 138.928 84.415 139.344C84.727 139.76 85.159 140.116 85.711 140.412C86.263 140.708 86.879 140.908 87.559 141.012L87.091 141.936C86.243 141.784 85.487 141.504 84.823 141.096C84.167 140.68 83.675 140.176 83.347 139.584C83.019 140.176 82.523 140.68 81.859 141.096C81.195 141.504 80.439 141.784 79.591 141.936L79.135 141.012C79.815 140.9 80.431 140.696 80.983 140.4C81.535 140.104 81.967 139.748 82.279 139.332C82.599 138.916 82.759 138.48 82.759 138.024V137.604H83.947ZM91.6513 143.916V144.96H96.3913V143.916H97.5793V147.804H90.4873V143.916H91.6513ZM91.6513 146.868H96.3913V145.86H91.6513V146.868ZM97.5793 137.316V143.424H96.3913V137.316H97.5793ZM88.8673 141.9C90.2353 141.9 91.4673 141.884 92.5633 141.852C93.6673 141.812 94.7233 141.724 95.7313 141.588L95.8153 142.44C95.0153 142.584 94.1113 142.688 93.1033 142.752V144.18H91.9513V142.8C91.2473 142.832 90.2673 142.848 89.0113 142.848L88.8673 141.9ZM93.0313 137.58V138.072C93.0313 138.576 93.2513 139.028 93.6913 139.428C94.1393 139.828 94.7473 140.108 95.5153 140.268L95.0233 141.168C94.4153 141.032 93.8913 140.816 93.4513 140.52C93.0113 140.224 92.6713 139.868 92.4313 139.452C92.2073 139.9 91.8713 140.284 91.4233 140.604C90.9753 140.924 90.4353 141.16 89.8033 141.312L89.2993 140.424C90.0753 140.256 90.6873 139.956 91.1353 139.524C91.5833 139.092 91.8073 138.608 91.8073 138.072V137.58H93.0313ZM108.236 137.316V147.936H107.108V137.316H108.236ZM105.992 137.568V147.408H104.888V142.5H102.896C102.256 143.772 101.224 144.832 99.7996 145.68L99.1156 144.84C100.204 144.184 101.028 143.424 101.588 142.56C102.148 141.688 102.472 140.696 102.56 139.584H99.6196V138.624H103.748C103.748 139.712 103.6 140.688 103.304 141.552H104.888V137.568H105.992ZM117.937 138.12V138.72C117.937 139.248 117.921 139.752 117.889 140.232C117.857 140.712 117.785 141.252 117.673 141.852L116.521 141.72C116.625 141.216 116.693 140.76 116.725 140.352C116.757 139.944 116.777 139.516 116.785 139.068H112.609V138.12H117.937ZM115.261 140.52V142.692C116.533 142.636 117.637 142.544 118.573 142.416L118.645 143.256C117.661 143.432 116.621 143.552 115.525 143.616C114.429 143.672 113.285 143.7 112.093 143.7L111.961 142.752C112.873 142.752 113.585 142.744 114.097 142.728V140.52H115.261ZM120.409 137.316V140.688H121.837V141.66H120.409V145.296H119.233V137.316H120.409ZM114.733 144.576V146.76H120.757V147.72H113.569V144.576H114.733ZM131.126 137.304V147.948H129.95V137.304H131.126ZM127.898 138.276V142.188H124.166V144.444C125.118 144.436 125.97 144.408 126.722 144.36C127.474 144.312 128.25 144.22 129.05 144.084L129.17 145.032C128.306 145.184 127.466 145.288 126.65 145.344C125.842 145.392 124.918 145.416 123.878 145.416H122.978V141.228H126.71V139.224H122.954V138.276H127.898ZM140.918 137.316V141.6H142.574V142.584H140.918V147.936H139.742V137.316H140.918ZM135.182 138.96V137.46H136.37V138.96H138.878V139.92H132.626V138.96H135.182ZM135.782 140.7C136.286 140.7 136.738 140.804 137.138 141.012C137.538 141.22 137.85 141.512 138.074 141.888C138.298 142.264 138.41 142.692 138.41 143.172C138.41 143.652 138.298 144.08 138.074 144.456C137.85 144.824 137.538 145.116 137.138 145.332C136.738 145.54 136.286 145.644 135.782 145.644C135.286 145.644 134.838 145.54 134.438 145.332C134.038 145.116 133.722 144.82 133.49 144.444C133.266 144.068 133.154 143.644 133.154 143.172C133.154 142.692 133.266 142.264 133.49 141.888C133.722 141.512 134.038 141.22 134.438 141.012C134.838 140.804 135.286 140.7 135.782 140.7ZM135.782 141.66C135.342 141.66 134.982 141.8 134.702 142.08C134.43 142.352 134.294 142.716 134.294 143.172C134.294 143.62 134.43 143.984 134.702 144.264C134.982 144.536 135.342 144.672 135.782 144.672C136.222 144.672 136.582 144.536 136.862 144.264C137.142 143.984 137.282 143.62 137.282 143.172C137.282 142.724 137.142 142.36 136.862 142.08C136.582 141.8 136.222 141.66 135.782 141.66ZM148.754 141.024V137.532H149.858V147.42H148.754V141.996H147.17V141.024H148.754ZM146.222 138.3V140.172C146.222 141.084 146.398 141.94 146.75 142.74C147.11 143.532 147.63 144.14 148.31 144.564L147.638 145.476C147.174 145.188 146.774 144.8 146.438 144.312C146.11 143.824 145.854 143.264 145.67 142.632C145.47 143.32 145.19 143.932 144.83 144.468C144.478 144.996 144.054 145.412 143.558 145.716L142.826 144.828C143.546 144.404 144.102 143.768 144.494 142.92C144.886 142.072 145.082 141.172 145.082 140.22V138.3H146.222ZM152.042 137.316V147.936H150.914V137.316H152.042ZM155.571 145.656V142.884C155.139 142.644 154.803 142.336 154.563 141.96C154.323 141.584 154.203 141.164 154.203 140.7C154.203 140.148 154.371 139.66 154.707 139.236C155.043 138.812 155.503 138.488 156.087 138.264C156.679 138.032 157.351 137.916 158.103 137.916C158.855 137.916 159.527 138.032 160.119 138.264C160.711 138.488 161.171 138.812 161.499 139.236C161.835 139.66 162.003 140.148 162.003 140.7C162.003 141.164 161.883 141.584 161.643 141.96C161.411 142.328 161.079 142.636 160.647 142.884V145.656H162.927V146.616H153.303V145.656H155.571ZM158.103 138.852C157.287 138.852 156.623 139.02 156.111 139.356C155.607 139.684 155.355 140.132 155.355 140.7C155.355 141.268 155.607 141.72 156.111 142.056C156.623 142.384 157.287 142.548 158.103 142.548C158.919 142.548 159.579 142.38 160.083 142.044C160.595 141.708 160.851 141.26 160.851 140.7C160.851 140.14 160.595 139.692 160.083 139.356C159.579 139.02 158.919 138.852 158.103 138.852ZM159.471 145.656V143.328C159.055 143.424 158.599 143.472 158.103 143.472C157.623 143.472 157.171 143.424 156.747 143.328V145.656H159.471ZM164.559 145.848C164.759 145.848 164.923 145.912 165.051 146.04C165.179 146.168 165.243 146.332 165.243 146.532C165.243 146.74 165.179 146.908 165.051 147.036C164.923 147.172 164.759 147.24 164.559 147.24C164.351 147.24 164.179 147.172 164.043 147.036C163.915 146.908 163.851 146.74 163.851 146.532C163.851 146.332 163.915 146.168 164.043 146.04C164.179 145.912 164.351 145.848 164.559 145.848Z" fill="#D1D6D8"/>
<path d="M34.7368 45.5174C34.7368 47.0029 33.5351 48.207 32.0526 48.207C30.5702 48.207 29.3684 47.0029 29.3684 45.5174L29.3684 41.4829L31.0015 41.4829C32.5863 41.4828 33.9731 40.6225 34.7368 39.3361L34.7368 45.5174ZM29.5475 35.5651L29.371 35.5651C29.3811 35.259 29.4436 34.9667 29.5475 34.6948L29.5475 35.5651Z" fill="#00D5C4"/>
<path d="M32.0526 28.4829C33.5349 28.4829 34.7367 29.6873 34.7368 31.1726L34.7368 36.5519C34.7368 36.579 34.7351 36.6064 34.7342 36.6333C34.7346 36.6467 34.7368 36.6601 34.7368 36.6735C34.7368 38.9017 32.9342 40.708 30.7105 40.708L26.6842 40.708C25.2018 40.708 24 39.5039 24 38.0184C24.0001 36.533 25.2018 35.3287 26.6842 35.3287L29.3684 35.3287L29.3684 31.1726C29.3686 29.6873 30.5703 28.4829 32.0526 28.4829Z" fill="#00D5C4"/>
<path d="M47.6715 32.5439C49.7493 32.5439 51.3795 33.2546 52.5606 34.6747C53.7412 36.0947 54.3311 37.9558 54.3311 40.2578L54.3311 45.9904C54.3311 47.3701 53.215 48.4886 51.838 48.4886C50.4611 48.4886 49.345 47.3701 49.345 45.9904L49.345 40.2578C49.345 39.1605 49.1041 38.2782 48.6231 37.6112C48.1637 36.9444 47.5515 36.6111 46.7862 36.611C46.0427 36.611 45.4192 36.9765 44.9162 37.7079C44.4351 38.4179 44.1943 39.2681 44.1943 40.2578L44.1943 45.9899C44.1943 47.3699 43.0779 48.4886 41.7007 48.4886C40.3235 48.4886 39.207 47.3699 39.207 45.9899L39.207 40.2578C39.207 39.1605 38.9775 38.2782 38.5182 37.6112C38.059 36.9445 37.4578 36.6111 36.7145 36.611C36.3175 36.611 35.9563 36.7604 35.6316 36.9301L35.6316 33.1838C35.6644 33.1643 35.6965 33.1436 35.7298 33.1249C36.4079 32.7376 37.1189 32.5439 37.8625 32.5439C38.7153 32.544 39.5572 32.8452 40.3882 33.4475C41.2192 34.0499 41.8977 34.7817 42.4226 35.6423C43.0568 34.8033 43.8659 34.0825 44.8501 33.48C45.856 32.8561 46.7967 32.544 47.6715 32.5439Z" fill="white"/>
<path d="M63.9522 49.1033C62.3223 49.1033 60.867 48.7499 59.5864 48.043C58.3057 47.3132 57.3045 46.3099 56.5827 45.0328C55.8609 43.733 55.5 42.2622 55.5 40.6203C55.5 38.9556 55.8609 37.4847 56.5827 36.2078C57.3045 34.908 58.3057 33.8932 59.5864 33.1634C60.867 32.4337 62.3223 32.0688 63.9522 32.0688C67.3052 32.0688 69.7617 33.5967 71.3217 36.6524C71.8572 37.6558 72.125 39.0924 72.125 40.9624L72.1119 41.4906C72.0997 41.9769 71.7028 42.3648 71.2174 42.3648L60.4595 42.3648C60.6691 43.1173 61.1115 43.7216 61.7868 44.1777C62.4853 44.611 63.2187 44.8276 63.9871 44.8276C64.8254 44.8276 65.5006 44.6908 66.0129 44.4171C66.0164 44.4152 66.0198 44.4133 66.0233 44.4114C66.5981 44.0934 67.2145 43.724 67.8713 43.724L68.4681 43.724C70.2591 43.724 71.5588 45.1651 70.3941 46.5285C69.9114 47.0935 69.351 47.5856 68.8419 47.9062C67.5612 48.7043 65.9314 49.1033 63.9522 49.1033ZM67.0877 39.0586C66.8782 38.1009 66.6415 37.6216 66.0827 37.0971C65.5239 36.5726 64.8137 36.3103 63.9522 36.3103C63.0674 36.3103 62.3223 36.5726 61.7169 37.0971C61.1115 37.6216 60.9595 38.1009 60.75 39.0586L67.0877 39.0586Z" fill="white"/>
<path d="M80.7892 49.1034C79.2336 49.1034 77.8611 48.749 76.6715 48.0403C75.5049 47.3087 74.6013 46.3027 73.9608 45.0224C73.3202 43.7192 73 42.2332 73 40.5642C73 38.8951 73.3202 37.4205 73.9608 36.1402C74.6013 34.837 75.5049 33.8196 76.6715 33.088C77.8611 32.3564 79.2336 31.9906 80.7892 31.9906C81.3839 31.9906 82.116 32.1392 82.9853 32.4364C83.8546 32.7108 84.6209 33.3166 85.2843 34.254L85.2843 26.6131C85.2843 25.1699 86.4519 24 87.8922 24C89.3324 24 90.5 25.1699 90.5 26.6131L90.5 46.4904C90.5 47.9335 89.3324 49.1034 87.8922 49.1034L87.509 49.1034C86.2803 49.1034 85.2843 48.1054 85.2843 46.8744C84.6209 47.7431 83.8317 48.3261 82.9166 48.6233C82.0245 48.9434 81.3153 49.1034 80.7892 49.1034ZM81.5441 44.9881C82.6193 44.9881 83.5115 44.5881 84.2206 43.7878C84.9297 42.9648 85.2843 41.936 85.2843 40.7013C85.2843 39.4439 84.9297 38.4036 84.2206 37.5805C83.5115 36.7575 82.6193 36.346 81.5441 36.346C80.4918 36.346 79.6683 36.7232 79.0736 37.4777C78.5016 38.2321 78.2157 39.3067 78.2157 40.7013C78.2157 42.0503 78.5016 43.1019 79.0736 43.8564C79.6683 44.6109 80.4918 44.9881 81.5441 44.9881Z" fill="white"/>
<path d="M94.875 31.8511C96.2697 31.8511 97.4004 32.984 97.4004 34.3815L97.4004 46.573C97.4004 47.9706 96.2697 49.1034 94.875 49.1034C93.4804 49.1034 92.3497 47.9706 92.3497 46.573L92.3497 34.3815C92.3497 32.984 93.4804 31.8511 94.875 31.8511ZM94.875 24C95.6504 24 96.2817 24.2546 96.769 24.7637C97.2563 25.2728 97.5 25.9324 97.5 26.7423C97.5 27.5292 97.2563 28.1887 96.769 28.721C96.2817 29.2301 95.6504 29.4846 94.875 29.4846C94.1219 29.4846 93.4905 29.2301 92.981 28.721C92.4937 28.1887 92.25 27.5292 92.25 26.7423C92.25 25.9324 92.4937 25.2728 92.981 24.7637C93.4905 24.2546 94.1219 24 94.875 24Z" fill="white"/>
<path d="M119.616 40.3633C119.616 39.198 119.375 38.2612 118.891 37.5528C118.43 36.8444 117.814 36.4903 117.046 36.4903C116.298 36.4903 115.672 36.8788 115.167 37.6556C114.683 38.4096 114.442 39.3122 114.442 40.3633L114.442 46.5937C114.442 47.9798 113.321 49.1033 111.938 49.1033C110.554 49.1033 109.433 47.9798 109.433 46.5937L109.433 40.3633C109.433 39.198 109.202 38.2612 108.741 37.5528C108.28 36.8444 107.675 36.4903 106.928 36.4903C106.138 36.4903 105.489 36.8444 104.984 37.5528C104.501 38.2612 104.259 39.198 104.259 40.3633L104.259 46.5937C104.259 47.9798 103.138 49.1033 101.755 49.1033C100.371 49.1033 99.25 47.9798 99.25 46.5937L99.25 34.5785C99.25 33.1924 100.392 32.0688 101.776 32.0688C103.136 32.0688 104.259 33.1737 104.259 34.5366C104.721 33.7597 105.281 33.1771 105.94 32.7886C106.621 32.3773 107.335 32.1717 108.082 32.1717C108.939 32.1717 109.785 32.4916 110.619 33.1314C111.454 33.7711 112.135 34.5481 112.663 35.462C113.3 34.5709 114.113 33.8055 115.101 33.1656C116.111 32.503 117.056 32.1717 117.935 32.1717C120.022 32.1717 121.659 32.9257 122.845 34.4338C124.032 35.9419 124.625 37.9184 124.625 40.3633L124.625 46.5937C124.625 47.9798 123.504 49.1033 122.12 49.1033C120.737 49.1033 119.616 47.9798 119.616 46.5937L119.616 40.3633Z" fill="white"/>
<path d="M134.406 45.2844C135.457 45.2844 136.271 44.9203 136.844 44.192C137.418 43.441 137.705 42.3941 137.705 41.0514C137.705 39.7087 137.418 38.6618 136.844 37.9107C136.271 37.1598 135.457 36.7842 134.406 36.7842C133.378 36.7842 132.565 37.1598 131.967 37.9107C131.393 38.6618 131.106 39.7087 131.106 41.0514C131.106 42.3941 131.393 43.441 131.967 44.192C132.541 44.9203 133.354 45.2844 134.406 45.2844ZM134.406 32.5171C136.103 32.5171 137.609 32.8812 138.924 33.6094C140.263 34.3377 141.303 35.3505 142.044 36.6477C142.785 37.9221 143.156 39.3901 143.156 41.0514C143.156 42.69 142.785 44.1579 142.044 45.4551C141.303 46.7296 140.263 47.7309 138.924 48.4592C137.609 49.1875 136.103 49.5516 134.406 49.5516C132.708 49.5516 131.19 49.1875 129.851 48.4592C128.537 47.7309 127.509 46.7296 126.768 45.4551C126.026 44.1579 125.656 42.69 125.656 41.0514C125.656 39.3901 126.026 37.9221 126.768 36.6477C127.509 35.3505 128.537 34.3377 129.851 33.6094C131.19 32.8812 132.708 32.5171 134.406 32.5171Z" fill="white"/>
</g>
<defs>
<linearGradient id="paint0_linear_280_1171" x1="0" y1="0" x2="23.6305" y2="210.889" gradientUnits="userSpaceOnUse">
<stop stop-color="#020934"/>
<stop offset="1" stop-color="#283CB2"/>
</linearGradient>
<linearGradient id="paint1_linear_280_1171" x1="114.892" y1="-23.0809" x2="193.324" y2="199.081" gradientUnits="userSpaceOnUse">
<stop stop-color="white"/>
<stop offset="0.75" stop-color="#999999"/>
</linearGradient>
<clipPath id="clip0_280_1171">
<rect width="335" height="176" rx="8" fill="white"/>
</clipPath>
</defs>
</svg>
