<svg width="164" height="188" viewBox="0 0 164 188" fill="none" xmlns="http://www.w3.org/2000/svg">
<rect width="164" height="188" rx="8" fill="#0E4E97"/>
<path d="M30.026 26.464V28.354H26.876V28.48C26.876 29.512 27.188 30.46 27.812 31.324C28.448 32.188 29.39 32.818 30.638 33.214L29.432 35.068C28.556 34.804 27.806 34.402 27.182 33.862C26.558 33.322 26.06 32.68 25.688 31.936C25.316 32.74 24.806 33.436 24.158 34.024C23.51 34.6 22.724 35.038 21.8 35.338L20.576 33.466C21.86 33.058 22.82 32.398 23.456 31.486C24.104 30.574 24.428 29.572 24.428 28.48V28.354H21.224V26.464H30.026ZM34.004 25.348V37.03H31.592V25.348H34.004ZM25.58 35.968V39.352H34.4V41.26H23.186V35.968H25.58ZM39.6924 37.822V35.392H37.6764V29.902H46.6584V28.246H37.6584V26.356H49.0344V31.756H40.0524V33.484H49.3944V35.392H47.1444V37.822H50.6724V39.748H36.0024V37.822H39.6924ZM44.8044 37.822V35.392H42.0324V37.822H44.8044ZM58.5293 37.714V33.772C57.9173 33.376 57.4433 32.896 57.1073 32.332C56.7713 31.768 56.6033 31.144 56.6033 30.46C56.6033 29.584 56.8613 28.816 57.3773 28.156C57.9053 27.496 58.6253 26.986 59.5373 26.626C60.4613 26.266 61.5053 26.086 62.6693 26.086C63.8333 26.086 64.8713 26.266 65.7833 26.626C66.7073 26.986 67.4273 27.496 67.9433 28.156C68.4713 28.816 68.7353 29.584 68.7353 30.46C68.7353 31.144 68.5673 31.768 68.2313 32.332C67.8953 32.896 67.4213 33.376 66.8093 33.772V37.714H70.0133V39.658H55.3433V37.714H58.5293ZM62.6693 27.958C61.5413 27.958 60.6413 28.18 59.9693 28.624C59.2973 29.068 58.9613 29.68 58.9613 30.46C58.9613 31.24 59.2973 31.852 59.9693 32.296C60.6413 32.74 61.5413 32.962 62.6693 32.962C63.7853 32.962 64.6793 32.74 65.3513 32.296C66.0233 31.852 66.3593 31.24 66.3593 30.46C66.3593 29.68 66.0233 29.068 65.3513 28.624C64.6793 28.18 63.7853 27.958 62.6693 27.958ZM64.3973 37.714V34.672C63.8213 34.768 63.2453 34.816 62.6693 34.816C62.0933 34.816 61.5173 34.768 60.9413 34.672V37.714H64.3973ZM74.3877 26.986V25.276H76.7817V26.986H79.9317V28.858H76.7817C76.8057 29.734 77.1297 30.526 77.7537 31.234C78.3777 31.942 79.3017 32.452 80.5257 32.764L79.4457 34.618C78.5577 34.39 77.7957 34.042 77.1597 33.574C76.5237 33.106 76.0197 32.548 75.6477 31.9C75.2757 32.644 74.7657 33.286 74.1177 33.826C73.4697 34.354 72.6897 34.75 71.7777 35.014L70.6617 33.142C71.8857 32.806 72.8037 32.248 73.4157 31.468C74.0397 30.676 74.3637 29.806 74.3877 28.858H71.2197V26.986H74.3877ZM81.9657 29.632V25.348H84.3597V35.104H81.9657V31.558H79.4997V29.632H81.9657ZM78.8697 35.374C80.5857 35.374 81.9357 35.644 82.9197 36.184C83.9157 36.724 84.4137 37.48 84.4137 38.452C84.4137 39.424 83.9157 40.18 82.9197 40.72C81.9357 41.272 80.5857 41.548 78.8697 41.548C77.1417 41.548 75.7797 41.272 74.7837 40.72C73.7877 40.18 73.2897 39.424 73.2897 38.452C73.2897 37.48 73.7877 36.724 74.7837 36.184C75.7797 35.644 77.1417 35.374 78.8697 35.374ZM78.8697 37.192C76.7577 37.192 75.7017 37.612 75.7017 38.452C75.7017 39.304 76.7577 39.73 78.8697 39.73C80.9817 39.73 82.0377 39.304 82.0377 38.452C82.0377 37.612 80.9817 37.192 78.8697 37.192Z" fill="white"/>
<path d="M26.648 55.144V56.092H24.356V56.5C24.356 57.196 24.588 57.84 25.052 58.432C25.524 59.016 26.164 59.44 26.972 59.704L26.36 60.616C25.76 60.424 25.24 60.128 24.8 59.728C24.36 59.328 24.02 58.86 23.78 58.324C23.54 58.9 23.192 59.408 22.736 59.848C22.288 60.28 21.752 60.604 21.128 60.82L20.528 59.896C21.344 59.616 21.984 59.164 22.448 58.54C22.92 57.916 23.156 57.236 23.156 56.5V56.092H20.852V55.144H26.648ZM29.18 54.328V62.056H27.98V54.328H29.18ZM23.432 61.336V63.76H29.48V64.72H22.256V61.336H23.432ZM33.3323 62.704V60.844H31.9043V57.448H38.0483V55.996H31.8803V55.06H39.2123V58.372H33.0683V59.884H39.4523V60.844H37.8683V62.704H40.3643V63.664H30.7403V62.704H33.3323ZM36.7163 62.704V60.844H34.4963V62.704H36.7163ZM49.2686 54.304V58.528H50.8886V59.5H49.2686V64.936H48.0806V54.304H49.2686ZM46.4966 55.432C46.4966 57.056 46.1126 58.512 45.3446 59.8C44.5846 61.088 43.3726 62.148 41.7086 62.98L41.0486 62.08C43.6566 60.752 45.0766 58.856 45.3086 56.392H41.5766V55.432H46.4966ZM62.7025 54.316V59.8H61.5145V54.316H62.7025ZM62.7025 60.28V62.944H56.8705V63.904H63.0625V64.84H55.7065V62.092H61.5385V61.192H55.6825V60.28H62.7025ZM60.1105 55V55.924H59.1385V58.396L59.5945 58.36L60.5785 58.252L60.6505 59.092C59.0425 59.348 56.9065 59.484 54.2425 59.5L54.1225 58.54L55.3705 58.528V55.924H54.3985V55H60.1105ZM57.9985 58.456V55.924H56.5105V58.516L57.9985 58.456ZM66.5187 62.656V59.884C66.0867 59.644 65.7507 59.336 65.5107 58.96C65.2707 58.584 65.1507 58.164 65.1507 57.7C65.1507 57.148 65.3187 56.66 65.6547 56.236C65.9907 55.812 66.4507 55.488 67.0347 55.264C67.6267 55.032 68.2987 54.916 69.0507 54.916C69.8027 54.916 70.4747 55.032 71.0667 55.264C71.6587 55.488 72.1187 55.812 72.4467 56.236C72.7827 56.66 72.9507 57.148 72.9507 57.7C72.9507 58.164 72.8307 58.584 72.5907 58.96C72.3587 59.328 72.0267 59.636 71.5947 59.884V62.656H73.8747V63.616H64.2507V62.656H66.5187ZM69.0507 55.852C68.2347 55.852 67.5707 56.02 67.0587 56.356C66.5547 56.684 66.3027 57.132 66.3027 57.7C66.3027 58.268 66.5547 58.72 67.0587 59.056C67.5707 59.384 68.2347 59.548 69.0507 59.548C69.8667 59.548 70.5267 59.38 71.0307 59.044C71.5427 58.708 71.7987 58.26 71.7987 57.7C71.7987 57.14 71.5427 56.692 71.0307 56.356C70.5267 56.02 69.8667 55.852 69.0507 55.852ZM70.4187 62.656V60.328C70.0027 60.424 69.5467 60.472 69.0507 60.472C68.5707 60.472 68.1187 60.424 67.6947 60.328V62.656H70.4187ZM82.839 54.328V57.712H84.351V58.696H82.839V62.272H81.663V54.328H82.839ZM77.115 55.54V54.316H78.303V55.54H80.835V56.476H74.583V55.54H77.115ZM77.703 56.992C78.207 56.992 78.655 57.076 79.047 57.244C79.439 57.404 79.743 57.636 79.959 57.94C80.175 58.244 80.283 58.596 80.283 58.996C80.283 59.388 80.175 59.736 79.959 60.04C79.743 60.344 79.439 60.58 79.047 60.748C78.655 60.916 78.207 61 77.703 61C77.207 61 76.763 60.916 76.371 60.748C75.987 60.58 75.687 60.344 75.471 60.04C75.255 59.736 75.147 59.388 75.147 58.996C75.147 58.596 75.255 58.244 75.471 57.94C75.687 57.636 75.987 57.404 76.371 57.244C76.755 57.076 77.199 56.992 77.703 56.992ZM77.703 57.892C77.271 57.892 76.923 57.992 76.659 58.192C76.403 58.392 76.275 58.66 76.275 58.996C76.275 59.332 76.403 59.6 76.659 59.8C76.923 59.992 77.271 60.088 77.703 60.088C78.135 60.088 78.483 59.992 78.747 59.8C79.011 59.6 79.143 59.332 79.143 58.996C79.143 58.66 79.011 58.392 78.747 58.192C78.483 57.992 78.135 57.892 77.703 57.892ZM77.319 61.648V63.76H83.295V64.72H76.143V61.648H77.319ZM95.8529 54.82V55.6C95.8529 56.16 95.8369 56.66 95.8049 57.1C95.7729 57.532 95.6969 58.016 95.5769 58.552L94.4249 58.432C94.5289 57.936 94.5969 57.488 94.6289 57.088C94.6609 56.688 94.6769 56.248 94.6769 55.768H88.5809V54.82H95.8529ZM91.2569 59.236V57.16H92.4209V59.236H97.0409V60.172H87.4649V59.236H91.2569ZM92.8049 60.928V61.348C92.8049 61.772 92.9529 62.168 93.2489 62.536C93.5449 62.904 93.9569 63.216 94.4849 63.472C95.0209 63.728 95.6329 63.9 96.3209 63.988L95.8889 64.9C95.0409 64.772 94.2929 64.528 93.6449 64.168C93.0049 63.816 92.5249 63.376 92.2049 62.848C91.8849 63.376 91.4049 63.816 90.7649 64.168C90.1249 64.528 89.3809 64.772 88.5329 64.9L88.0889 63.988C88.7849 63.9 89.4009 63.728 89.9369 63.472C90.4729 63.216 90.8889 62.904 91.1849 62.536C91.4809 62.168 91.6289 61.772 91.6289 61.348V60.928H92.8049ZM107.361 58.636V59.584H97.7732V58.636H107.361ZM106.113 54.604V55.564H100.185V56.956H106.233V57.88H99.0092V54.604H106.113ZM106.149 60.376V62.992H100.077V63.904H106.449V64.828H98.9252V62.14H104.985V61.288H98.8892V60.376H106.149Z" fill="#D1D6D8"/>
<rect x="94" y="99.0715" width="47" height="66.0238" rx="4" fill="#D1D6D8"/>
<rect x="104" y="117.072" width="10" height="10" rx="1" fill="white"/>
<rect x="122" y="117.072" width="10" height="10" rx="1" fill="white"/>
<rect x="104" y="131.072" width="10" height="10" rx="1" fill="white"/>
<rect x="122" y="131.072" width="10" height="10" rx="1" fill="white"/>
<rect x="107.428" y="89" width="20.1429" height="20.1429" rx="2" fill="#1B7BE8"/>
<rect x="115.428" y="92" width="4" height="14" rx="1" fill="white"/>
<rect x="110.428" y="101" width="4" height="14" rx="1" transform="rotate(-90 110.428 101)" fill="white"/>
<rect x="111.905" y="148.31" width="11.1905" height="22.381" rx="5.59524" fill="#0E4E97"/>
</svg>
