<svg width="335" height="48" viewBox="0 0 335 48" fill="none" xmlns="http://www.w3.org/2000/svg">
<rect width="335" height="48" rx="12" fill="#FFE300"/>
<mask id="mask0_323_2037" style="mask-type:alpha" maskUnits="userSpaceOnUse" x="77" y="18" width="13" height="12">
<path d="M83.5001 18.0417C86.7905 18.0417 89.4577 20.709 89.4577 23.9994C89.4577 27.2897 86.7905 29.957 83.5001 29.957C82.5363 29.9582 81.5867 29.7247 80.7334 29.2766L78.1775 29.9421C78.0921 29.9643 78.0024 29.9638 77.9173 29.9407C77.8321 29.9176 77.7544 29.8726 77.692 29.8103C77.6296 29.7479 77.5845 29.6703 77.5613 29.5852C77.5381 29.5 77.5376 29.4103 77.5597 29.3249L78.2246 26.7696C77.7753 25.9154 77.5411 24.9645 77.5425 23.9994C77.5425 20.709 80.2097 18.0417 83.5001 18.0417Z" fill="white"/>
</mask>
<g mask="url(#mask0_323_2037)">
<rect x="77" y="17.5" width="13" height="13" fill="#1E1E1E"/>
</g>
<path d="M104.076 18.238H105.21C105.21 19.1527 105.121 20.0487 104.944 20.926C104.767 21.794 104.463 22.6247 104.034 23.418C103.605 24.202 103.017 24.9393 102.27 25.63C101.523 26.3207 100.585 26.946 99.456 27.506L98.812 26.61C99.82 26.1153 100.66 25.5693 101.332 24.972C102.004 24.3747 102.541 23.7307 102.942 23.04C103.343 22.3493 103.633 21.612 103.81 20.828C103.987 20.044 104.076 19.2227 104.076 18.364V18.238ZM99.512 18.238H104.776V19.19H99.512V18.238ZM103.908 21.374V22.284L99.05 22.746L98.868 21.724L103.908 21.374ZM107.268 16.922H108.43V29.578H107.268V16.922ZM108.122 22.06H110.446V23.026H108.122V22.06ZM116.745 18.238H117.879C117.879 19.1527 117.79 20.0487 117.613 20.926C117.436 21.794 117.132 22.6247 116.703 23.418C116.274 24.202 115.686 24.9393 114.939 25.63C114.192 26.3207 113.254 26.946 112.125 27.506L111.481 26.61C112.489 26.1153 113.329 25.5693 114.001 24.972C114.673 24.3747 115.21 23.7307 115.611 23.04C116.012 22.3493 116.302 21.612 116.479 20.828C116.656 20.044 116.745 19.2227 116.745 18.364V18.238ZM112.181 18.238H117.445V19.19H112.181V18.238ZM116.577 21.374V22.284L111.719 22.746L111.537 21.724L116.577 21.374ZM119.937 16.922H121.099V29.578H119.937V16.922ZM120.791 22.06H123.115V23.026H120.791V22.06ZM129.176 24.076H130.324V27.226H129.176V24.076ZM129.75 17.748C130.646 17.748 131.439 17.888 132.13 18.168C132.82 18.4387 133.362 18.8213 133.754 19.316C134.155 19.8107 134.356 20.394 134.356 21.066C134.356 21.738 134.155 22.326 133.754 22.83C133.362 23.3247 132.82 23.7073 132.13 23.978C131.439 24.2487 130.646 24.384 129.75 24.384C128.863 24.384 128.07 24.2487 127.37 23.978C126.679 23.7073 126.138 23.3247 125.746 22.83C125.354 22.326 125.158 21.738 125.158 21.066C125.158 20.394 125.354 19.8107 125.746 19.316C126.138 18.8213 126.679 18.4387 127.37 18.168C128.07 17.888 128.863 17.748 129.75 17.748ZM129.75 18.686C129.078 18.686 128.48 18.784 127.958 18.98C127.435 19.176 127.024 19.456 126.726 19.82C126.427 20.1747 126.278 20.59 126.278 21.066C126.278 21.542 126.427 21.962 126.726 22.326C127.024 22.69 127.435 22.97 127.958 23.166C128.48 23.362 129.078 23.46 129.75 23.46C130.422 23.46 131.019 23.362 131.542 23.166C132.064 22.97 132.475 22.69 132.774 22.326C133.082 21.962 133.236 21.542 133.236 21.066C133.236 20.59 133.082 20.1747 132.774 19.82C132.475 19.456 132.064 19.176 131.542 18.98C131.019 18.784 130.422 18.686 129.75 18.686ZM124.038 27.002H135.518V27.968H124.038V27.002ZM136.707 27.058H148.187V28.024H136.707V27.058ZM141.845 24.356H142.993V27.464H141.845V24.356ZM138.107 17.86H146.759V21.696H139.283V24.23H138.135V20.772H145.611V18.812H138.107V17.86ZM138.135 23.74H147.053V24.692H138.135V23.74ZM154.917 23.908L155.085 22.886H155.533C156.448 22.886 157.18 22.7227 157.731 22.396C158.282 22.06 158.557 21.6073 158.557 21.038C158.557 20.6087 158.408 20.268 158.109 20.016C157.82 19.7547 157.446 19.624 156.989 19.624C156.56 19.624 156.191 19.694 155.883 19.834C155.575 19.9647 155.3 20.1187 155.057 20.296L154.567 19.344C154.894 19.1107 155.267 18.9193 155.687 18.77C156.116 18.6113 156.602 18.532 157.143 18.532C157.712 18.532 158.198 18.6393 158.599 18.854C159.01 19.0687 159.322 19.3533 159.537 19.708C159.752 20.0533 159.859 20.4267 159.859 20.828C159.859 21.4813 159.668 22.0133 159.285 22.424C158.902 22.8253 158.342 23.138 157.605 23.362C158.193 23.5673 158.646 23.8707 158.963 24.272C159.28 24.6733 159.439 25.1493 159.439 25.7C159.439 26.2973 159.285 26.82 158.977 27.268C158.669 27.716 158.244 28.0613 157.703 28.304C157.171 28.5467 156.56 28.668 155.869 28.668C155.337 28.668 154.833 28.598 154.357 28.458C153.89 28.3087 153.494 28.108 153.167 27.856L153.909 26.862C154.142 27.058 154.422 27.2213 154.749 27.352C155.076 27.4827 155.449 27.548 155.869 27.548C156.504 27.548 157.031 27.394 157.451 27.086C157.871 26.778 158.081 26.3347 158.081 25.756C158.081 25.2427 157.88 24.8087 157.479 24.454C157.078 24.09 156.462 23.908 155.631 23.908H154.917ZM161.547 27.03H173.027V27.996H161.547V27.03ZM166.699 24.16H167.847V27.548H166.699V24.16ZM166.685 19.582H167.721V19.862C167.721 20.506 167.586 21.094 167.315 21.626C167.045 22.1487 166.671 22.6153 166.195 23.026C165.719 23.4273 165.178 23.7633 164.571 24.034C163.965 24.2953 163.316 24.482 162.625 24.594L162.177 23.684C162.793 23.5813 163.372 23.418 163.913 23.194C164.464 22.97 164.945 22.69 165.355 22.354C165.775 22.018 166.102 21.64 166.335 21.22C166.569 20.8 166.685 20.3473 166.685 19.862V19.582ZM166.839 19.582H167.861V19.862C167.861 20.3473 167.978 20.8 168.211 21.22C168.445 21.64 168.767 22.018 169.177 22.354C169.597 22.69 170.078 22.97 170.619 23.194C171.17 23.418 171.753 23.5813 172.369 23.684L171.921 24.594C171.24 24.482 170.591 24.2953 169.975 24.034C169.369 23.7633 168.827 23.4273 168.351 23.026C167.885 22.6153 167.516 22.1487 167.245 21.626C166.975 21.094 166.839 20.506 166.839 19.862V19.582ZM162.611 18.924H171.935V19.876H162.611V18.924ZM166.699 17.188H167.847V19.274H166.699V17.188ZM178.722 18.07H184.546V23.922H178.722V18.07ZM183.412 19.008H179.856V22.984H183.412V19.008ZM186.87 16.922H188.032V26.204H186.87V16.922ZM187.668 20.772H189.894V21.738H187.668V20.772ZM180.15 28.36H188.592V29.312H180.15V28.36ZM180.15 25.322H181.298V28.766H180.15V25.322ZM196.011 21.85H198.391V22.802H196.011V21.85ZM200.519 16.922H201.639V29.592H200.519V16.922ZM197.999 17.188H199.105V28.948H197.999V17.188ZM193.715 17.986C194.265 17.986 194.741 18.1633 195.143 18.518C195.553 18.8727 195.871 19.3813 196.095 20.044C196.319 20.7067 196.431 21.486 196.431 22.382C196.431 23.2873 196.319 24.0713 196.095 24.734C195.871 25.3967 195.553 25.91 195.143 26.274C194.741 26.6287 194.265 26.806 193.715 26.806C193.183 26.806 192.711 26.6287 192.301 26.274C191.899 25.91 191.587 25.3967 191.363 24.734C191.139 24.0713 191.027 23.2873 191.027 22.382C191.027 21.486 191.139 20.7067 191.363 20.044C191.587 19.3813 191.899 18.8727 192.301 18.518C192.711 18.1633 193.183 17.986 193.715 17.986ZM193.715 19.064C193.388 19.064 193.103 19.1993 192.861 19.47C192.618 19.7407 192.431 20.1233 192.301 20.618C192.17 21.1127 192.105 21.7007 192.105 22.382C192.105 23.0633 192.17 23.656 192.301 24.16C192.431 24.6547 192.618 25.0373 192.861 25.308C193.103 25.5787 193.388 25.714 193.715 25.714C194.051 25.714 194.34 25.5787 194.583 25.308C194.835 25.0373 195.026 24.6547 195.157 24.16C195.287 23.656 195.353 23.0633 195.353 22.382C195.353 21.7007 195.287 21.1127 195.157 20.618C195.026 20.1233 194.835 19.7407 194.583 19.47C194.34 19.1993 194.051 19.064 193.715 19.064ZM210.861 18.014H211.827V20.282C211.827 21.01 211.733 21.7193 211.547 22.41C211.369 23.0913 211.113 23.7307 210.777 24.328C210.45 24.916 210.063 25.4387 209.615 25.896C209.176 26.344 208.695 26.6987 208.173 26.96L207.459 25.994C207.935 25.7793 208.378 25.4713 208.789 25.07C209.199 24.6687 209.559 24.216 209.867 23.712C210.175 23.1987 210.417 22.648 210.595 22.06C210.772 21.472 210.861 20.8793 210.861 20.282V18.014ZM211.057 18.014H212.023V20.282C212.023 20.8607 212.107 21.43 212.275 21.99C212.452 22.55 212.695 23.082 213.003 23.586C213.32 24.0807 213.679 24.5193 214.081 24.902C214.491 25.2753 214.93 25.5693 215.397 25.784L214.697 26.708C214.183 26.4653 213.707 26.1247 213.269 25.686C212.83 25.2473 212.443 24.7433 212.107 24.174C211.78 23.6047 211.523 22.9887 211.337 22.326C211.15 21.6633 211.057 20.982 211.057 20.282V18.014ZM216.727 16.922H217.889V29.606H216.727V16.922ZM223.32 18.224H224.272V19.246C224.272 20.0207 224.122 20.744 223.824 21.416C223.534 22.0787 223.128 22.6573 222.606 23.152C222.083 23.6373 221.467 24.006 220.758 24.258L220.142 23.362C220.776 23.138 221.332 22.816 221.808 22.396C222.284 21.976 222.652 21.5 222.914 20.968C223.184 20.4267 223.32 19.8527 223.32 19.246V18.224ZM223.53 18.224H224.482V19.246C224.482 19.7967 224.608 20.3287 224.86 20.842C225.112 21.3553 225.466 21.808 225.924 22.2C226.39 22.592 226.932 22.8953 227.548 23.11L226.96 24.02C226.269 23.768 225.662 23.4087 225.14 22.942C224.626 22.466 224.23 21.9107 223.95 21.276C223.67 20.6413 223.53 19.9647 223.53 19.246V18.224ZM220.492 17.804H227.268V18.756H220.492V17.804ZM228.864 16.922H230.026V24.552H228.864V16.922ZM229.704 20.254H231.888V21.234H229.704V20.254ZM221.794 25.224H230.026V29.592H228.864V26.176H221.794V25.224ZM241.448 16.922H242.596V29.592H241.448V16.922ZM242.33 22.13H244.668V23.11H242.33V22.13ZM232.796 18.952H240.258V19.904H232.796V18.952ZM236.59 20.94C237.188 20.94 237.715 21.066 238.172 21.318C238.639 21.57 239.003 21.9153 239.264 22.354C239.535 22.7833 239.67 23.2827 239.67 23.852C239.67 24.4213 239.535 24.9253 239.264 25.364C239.003 25.8027 238.639 26.148 238.172 26.4C237.715 26.6427 237.188 26.764 236.59 26.764C235.993 26.764 235.461 26.6427 234.994 26.4C234.537 26.148 234.173 25.8027 233.902 25.364C233.632 24.9253 233.496 24.4213 233.496 23.852C233.496 23.2827 233.632 22.7833 233.902 22.354C234.173 21.9153 234.537 21.57 234.994 21.318C235.461 21.066 235.993 20.94 236.59 20.94ZM236.59 21.906C236.208 21.906 235.867 21.99 235.568 22.158C235.27 22.326 235.032 22.5547 234.854 22.844C234.686 23.1333 234.602 23.4693 234.602 23.852C234.602 24.2347 234.686 24.5753 234.854 24.874C235.032 25.1633 235.27 25.392 235.568 25.56C235.867 25.7187 236.208 25.798 236.59 25.798C236.964 25.798 237.3 25.7187 237.598 25.56C237.897 25.392 238.13 25.1633 238.298 24.874C238.476 24.5753 238.564 24.2347 238.564 23.852C238.564 23.4693 238.476 23.1333 238.298 22.844C238.13 22.5547 237.897 22.326 237.598 22.158C237.3 21.99 236.964 21.906 236.59 21.906ZM235.988 17.076H237.15V19.372H235.988V17.076ZM254.761 16.922H255.923V29.592H254.761V16.922ZM251.051 18.294H252.199C252.199 19.2087 252.087 20.0907 251.863 20.94C251.649 21.7893 251.308 22.5967 250.841 23.362C250.375 24.118 249.768 24.8227 249.021 25.476C248.275 26.1293 247.369 26.7127 246.305 27.226L245.689 26.288C246.912 25.7 247.92 25.014 248.713 24.23C249.507 23.446 250.095 22.5733 250.477 21.612C250.86 20.6413 251.051 19.596 251.051 18.476V18.294ZM246.277 18.294H251.541V19.232H246.277V18.294Z" fill="#1E1E1E"/>
</svg>
