<svg width="422" height="93" viewBox="0 0 422 93" fill="none" xmlns="http://www.w3.org/2000/svg">
<g clip-path="url(#clip0_71_1641)">
<path d="M38.0752 76.9656C38.0752 82.2791 33.8136 86.5863 28.5564 86.5863C23.2993 86.5863 19.0376 82.2791 19.0376 76.9656V62.5345H24.8288C30.4488 62.5342 35.3668 59.4569 38.0752 54.8556V76.9656ZM19.6728 41.3671H19.0469C19.0826 40.2722 19.3043 39.2268 19.6728 38.2542V41.3671Z" fill="#0E4E97"/>
<path d="M28.5564 16.0344C33.813 16.0344 38.0746 20.3424 38.0752 25.6551V44.8965C38.0752 44.9933 38.0688 45.0915 38.066 45.1877C38.0673 45.2358 38.0752 45.2836 38.0752 45.3317C38.0752 53.3018 31.6826 59.7627 23.797 59.7627H9.5188C4.26172 59.7627 0 55.4555 0 50.142C0.000375993 44.8291 4.26195 40.5213 9.5188 40.5213H19.0376V25.6551C19.0384 20.3424 23.2998 16.0344 28.5564 16.0344Z" fill="#1B7BE8"/>
<mask id="mask0_71_1641" style="mask-type:luminance" maskUnits="userSpaceOnUse" x="41" y="30" width="71" height="58">
<path d="M111.053 30.215H41.2481V87.9392H111.053V30.215Z" fill="white"/>
</mask>
<g mask="url(#mask0_71_1641)">
<path d="M83.9444 30.5607C91.3125 30.5607 97.0936 33.1025 101.282 38.1822C105.469 43.2613 107.561 49.9185 107.561 58.1525V78.6577C107.561 83.5928 103.603 87.5934 98.7197 87.5934C93.8369 87.5934 89.8787 83.5928 89.8787 78.6577V58.1525C89.8787 54.2276 89.0245 51.0717 87.3188 48.6858C85.6898 46.3008 83.5185 45.1085 80.8047 45.1081C78.168 45.1081 75.9571 46.4156 74.1733 49.0318C72.4672 51.5713 71.6134 54.6124 71.6134 58.1525V78.6558C71.6134 83.5919 67.6542 87.5934 62.7704 87.5934C57.8866 87.5934 53.9275 83.5919 53.9275 78.6558V58.1525C53.9275 54.2276 53.1133 51.0717 51.4846 48.6858C49.8563 46.3011 47.7244 45.1085 45.0883 45.1081C43.6805 45.1081 42.3996 45.6427 41.2481 46.2495V32.8495C41.3646 32.7796 41.4781 32.7055 41.5965 32.6388C44.0009 31.2535 46.5225 30.5607 49.1595 30.5607C52.1836 30.5607 55.1693 31.6384 58.1161 33.7926C61.0631 35.9473 63.4691 38.5651 65.3307 41.6434C67.5796 38.6421 70.4489 36.0641 73.9388 33.909C77.5062 31.6773 80.8419 30.5609 83.9444 30.5607Z" fill="black"/>
</g>
<path d="M141.679 89.7931C135.899 89.7931 130.738 88.5289 126.197 86.0003C121.656 83.3899 118.105 79.801 115.546 75.2331C112.986 70.5838 111.706 65.3229 111.706 59.4501C111.706 53.4955 112.986 48.2343 115.546 43.6667C118.105 39.0173 121.656 35.3875 126.197 32.7774C130.738 30.1671 135.899 28.8621 141.679 28.8621C153.57 28.8621 162.281 34.3269 167.813 45.257C169.712 48.8462 170.662 53.9849 170.662 60.6735L170.615 62.563C170.572 64.3024 169.165 65.6897 167.443 65.6897H129.294C130.037 68.3816 131.606 70.5431 134 72.1744C136.477 73.7243 139.078 74.4991 141.803 74.4991C144.776 74.4991 147.17 74.0097 148.987 73.031C148.999 73.0239 149.011 73.0172 149.024 73.0104C151.062 71.873 153.248 70.5517 155.577 70.5517H157.694C164.045 70.5517 168.654 75.7065 164.524 80.5832C162.812 82.6042 160.825 84.3645 159.019 85.5109C154.478 88.3657 148.698 89.7931 141.679 89.7931ZM152.799 53.864C152.055 50.4384 151.216 48.7237 149.234 46.8476C147.253 44.9716 144.734 44.0336 141.679 44.0336C138.542 44.0336 135.899 44.9716 133.752 46.8476C131.606 48.7237 131.067 50.4384 130.323 53.864H152.799Z" fill="black"/>
<path d="M201.387 89.7931C195.87 89.7931 191.003 88.5254 186.785 85.9904C182.648 83.3735 179.443 79.7751 177.172 75.1956C174.9 70.5341 173.765 65.2187 173.765 59.2487C173.765 53.2787 174.9 48.004 177.172 43.4246C179.443 38.763 182.648 35.1239 186.785 32.507C191.003 29.8901 195.87 28.5817 201.387 28.5817C203.496 28.5817 206.092 29.1132 209.175 30.1764C212.257 31.1577 214.975 33.3248 217.327 36.6779V9.34698C217.327 4.18478 221.468 0 226.576 0C231.683 0 235.823 4.18478 235.823 9.34698V80.4463C235.823 85.6084 231.683 89.7931 226.576 89.7931H225.217C220.86 89.7931 217.327 86.2232 217.327 81.8198C214.975 84.9273 212.176 87.0127 208.931 88.0758C205.767 89.2207 203.253 89.7931 201.387 89.7931ZM204.064 75.0728C207.877 75.0728 211.041 73.6419 213.555 70.7794C216.07 67.8355 217.327 64.1556 217.327 59.7394C217.327 55.2417 216.07 51.5207 213.555 48.5765C211.041 45.6325 207.877 44.1606 204.064 44.1606C200.332 44.1606 197.412 45.51 195.303 48.2086C193.275 50.9072 192.261 54.751 192.261 59.7394C192.261 64.5645 193.275 68.3261 195.303 71.0247C197.412 73.7237 200.332 75.0728 204.064 75.0728Z" fill="black"/>
<path d="M251.338 28.0828C256.284 28.0828 260.294 32.135 260.294 37.1339V80.742C260.294 85.7409 256.284 89.7931 251.338 89.7931C246.393 89.7931 242.383 85.7409 242.383 80.742V37.1339C242.383 32.135 246.393 28.0828 251.338 28.0828ZM251.338 0C254.088 0 256.327 0.910547 258.055 2.73164C259.783 4.55273 260.647 6.91189 260.647 9.80906C260.647 12.6235 259.783 14.9827 258.055 16.8865C256.327 18.7076 254.088 19.6182 251.338 19.6182C248.668 19.6182 246.429 18.7076 244.622 16.8865C242.894 14.9827 242.029 12.6235 242.029 9.80906C242.029 6.91189 242.894 4.55273 244.622 2.73164C246.429 0.910547 248.668 0 251.338 0Z" fill="black"/>
<path d="M339.075 58.5307C339.075 54.3623 338.219 51.0115 336.505 48.4777C334.868 45.9439 332.685 44.6772 329.96 44.6772C327.31 44.6772 325.089 46.0667 323.3 48.8455C321.583 51.5425 320.726 54.7709 320.726 58.5307V80.8163C320.726 85.7742 316.751 89.7931 311.846 89.7931C306.94 89.7931 302.964 85.7742 302.964 80.8163V58.5307C302.964 54.3623 302.146 51.0115 300.51 48.4777C298.874 45.9439 296.731 44.6772 294.082 44.6772C291.277 44.6772 288.979 45.9439 287.187 48.4777C285.473 51.0115 284.616 54.3623 284.616 58.5307V80.8163C284.616 85.7742 280.64 89.7931 275.734 89.7931C270.829 89.7931 266.853 85.7742 266.853 80.8163V37.8388C266.853 32.8809 270.904 28.8621 275.809 28.8621C280.633 28.8621 284.616 32.8139 284.616 37.689C286.252 34.9103 288.239 32.8261 290.576 31.4366C292.991 29.9654 295.523 29.2299 298.172 29.2299C301.211 29.2299 304.211 30.3741 307.171 32.6626C310.132 34.951 312.547 37.7301 314.417 40.9992C316.676 37.8115 319.559 35.0738 323.065 32.7851C326.647 30.415 329.998 29.2299 333.113 29.2299C340.516 29.2299 346.319 31.927 350.527 37.3212C354.734 42.7155 356.837 49.7855 356.837 58.5307V80.8163C356.837 85.7742 352.862 89.7931 347.956 89.7931C343.051 89.7931 339.075 85.7742 339.075 80.8163V58.5307Z" fill="black"/>
<path d="M390.972 76.1334C394.7 76.1334 397.584 74.8307 399.618 72.2258C401.652 69.5397 402.671 65.795 402.671 60.992C402.671 56.1894 401.652 52.4447 399.618 49.7583C397.584 47.0722 394.7 45.7288 390.972 45.7288C387.326 45.7288 384.442 47.0722 382.323 49.7583C380.289 52.4447 379.27 56.1894 379.27 60.992C379.27 65.795 380.289 69.5397 382.323 72.2258C384.356 74.8307 387.241 76.1334 390.972 76.1334ZM390.972 30.4656C396.991 30.4656 402.331 31.7681 406.995 34.3729C411.742 36.9778 415.429 40.6003 418.059 45.2404C420.686 49.799 422 55.0496 422 60.992C422 66.8533 420.686 72.1039 418.059 76.744C415.429 81.3026 411.742 84.8844 406.995 87.4893C402.331 90.0943 396.991 91.3966 390.972 91.3966C384.95 91.3966 379.568 90.0943 374.819 87.4893C370.158 84.8844 366.512 81.3026 363.885 76.744C361.254 72.1039 359.941 66.8533 359.941 60.992C359.941 55.0496 361.254 49.799 363.885 45.2404C366.512 40.6003 370.158 36.9778 374.819 34.3729C379.568 31.7681 384.95 30.4656 390.972 30.4656Z" fill="black"/>
</g>
<defs>
<clipPath id="clip0_71_1641">
<rect width="422" height="93" fill="white"/>
</clipPath>
</defs>
</svg>
