<svg width="375" height="48" viewBox="0 0 375 48" fill="none" xmlns="http://www.w3.org/2000/svg">
<g clip-path="url(#clip0_101_266)">
<path d="M29.8345 31.8621C29.8345 33.2333 28.7338 34.3448 27.3759 34.3448C26.018 34.3448 24.9172 33.2333 24.9172 31.8621V28.1379H26.4131C27.8647 28.1378 29.135 27.3437 29.8345 26.1563V31.8621ZM25.0813 22.6754H24.9196C24.9289 22.3928 24.9861 22.123 25.0813 21.872V22.6754Z" fill="#0E4E97"/>
<path d="M27.3759 16.1379C28.7337 16.1379 29.8344 17.2497 29.8346 18.6207V23.5862C29.8346 23.6112 29.8329 23.6365 29.8322 23.6613C29.8325 23.6738 29.8346 23.6861 29.8346 23.6985C29.8346 25.7553 28.1834 27.4226 26.1466 27.4226H22.4586C21.1008 27.4226 20 26.3111 20 24.9399C20.0001 23.5688 21.1008 22.4571 22.4586 22.4571H24.9173V18.6207C24.9175 17.2497 26.0182 16.1379 27.3759 16.1379Z" fill="#1B7BE8"/>
<mask id="mask0_101_266" style="mask-type:luminance" maskUnits="userSpaceOnUse" x="30" y="19" width="19" height="16">
<path d="M48.6841 19.7974H30.6541V34.694H48.6841V19.7974Z" fill="white"/>
</mask>
<g mask="url(#mask0_101_266)">
<path d="M41.6822 19.8866C43.5854 19.8866 45.0786 20.5426 46.1604 21.8535C47.2419 23.1642 47.7822 24.8822 47.7822 27.0071V32.2988C47.7822 33.5724 46.7598 34.6048 45.4986 34.6048C44.2374 34.6048 43.215 33.5724 43.215 32.2988V27.0071C43.215 25.9942 42.9944 25.1798 42.5538 24.5641C42.1331 23.9486 41.5722 23.6409 40.8713 23.6408C40.1902 23.6408 39.6192 23.9782 39.1584 24.6534C38.7178 25.3087 38.4972 26.0935 38.4972 27.0071V32.2983C38.4972 33.5721 37.4746 34.6048 36.2131 34.6048C34.9517 34.6048 33.9291 33.5721 33.9291 32.2983V27.0071C33.9291 25.9942 33.7188 25.1798 33.2981 24.5641C32.8775 23.9487 32.3268 23.6409 31.646 23.6408C31.2823 23.6408 30.9515 23.7788 30.6541 23.9354V20.4773C30.6841 20.4593 30.7135 20.4401 30.744 20.4229C31.3651 20.0654 32.0164 19.8866 32.6975 19.8866C33.4786 19.8867 34.2498 20.1648 35.0109 20.7207C35.7721 21.2767 36.3936 21.9523 36.8744 22.7467C37.4553 21.9722 38.1964 21.3069 39.0979 20.7507C40.0193 20.1748 40.8809 19.8867 41.6822 19.8866Z" fill="black"/>
</g>
<path d="M56.595 35.1724C55.102 35.1724 53.769 34.8462 52.596 34.1936C51.423 33.52 50.5059 32.5938 49.8448 31.415C49.1836 30.2152 48.853 28.8575 48.853 27.342C48.853 25.8053 49.1836 24.4476 49.8448 23.2688C50.5059 22.069 51.423 21.1322 52.596 20.4587C53.769 19.7851 55.102 19.4483 56.595 19.4483C59.6662 19.4483 61.9162 20.8586 63.3452 23.6792C63.8357 24.6055 64.081 25.9316 64.081 27.6577L64.0689 28.1453C64.0578 28.5942 63.6942 28.9522 63.2496 28.9522H53.3958C53.5877 29.6469 53.993 30.2047 54.6115 30.6257C55.2513 31.0256 55.9231 31.2256 56.6269 31.2256C57.3948 31.2256 58.0132 31.0993 58.4825 30.8467C58.4857 30.8449 58.4888 30.8431 58.492 30.8414C59.0185 30.5479 59.5831 30.2069 60.1847 30.2069H60.7314C62.3719 30.2069 63.5624 31.5372 62.4955 32.7957C62.0534 33.3172 61.5401 33.7715 61.0737 34.0673C59.9007 34.8041 58.4078 35.1724 56.595 35.1724ZM59.467 25.9004C59.2751 25.0164 59.0583 24.5738 58.5464 24.0897C58.0346 23.6056 57.384 23.3635 56.595 23.3635C55.7845 23.3635 55.102 23.6056 54.5475 24.0897C53.993 24.5738 53.8538 25.0164 53.6618 25.9004H59.467Z" fill="black"/>
<path d="M72.017 35.1724C70.5921 35.1724 69.3349 34.8453 68.2453 34.1911C67.1767 33.5158 66.3491 32.5871 65.7624 31.4053C65.1756 30.2023 64.8823 28.8306 64.8823 27.29C64.8823 25.7494 65.1756 24.3881 65.7624 23.2063C66.3491 22.0034 67.1767 21.0642 68.2453 20.3889C69.3349 19.7136 70.5921 19.3759 72.017 19.3759C72.5617 19.3759 73.2323 19.5131 74.0285 19.7875C74.8248 20.0407 75.5267 20.5999 76.1343 21.4653V14.4121C76.1343 13.0799 77.2038 12 78.5231 12C79.8423 12 80.9117 13.0799 80.9117 14.4121V32.7603C80.9117 34.0925 79.8423 35.1724 78.5231 35.1724H78.172C77.0466 35.1724 76.1343 34.2511 76.1343 33.1148C75.5267 33.9167 74.8038 34.4549 73.9656 34.7292C73.1485 35.0247 72.4989 35.1724 72.017 35.1724ZM72.7084 31.3736C73.6933 31.3736 74.5105 31.0044 75.16 30.2657C75.8095 29.5059 76.1343 28.5563 76.1343 27.4166C76.1343 26.2559 75.8095 25.2957 75.16 24.5359C74.5105 23.7761 73.6933 23.3963 72.7084 23.3963C71.7446 23.3963 70.9903 23.7445 70.4455 24.4409C69.9216 25.1374 69.6597 26.1293 69.6597 27.4166C69.6597 28.6618 69.9216 29.6326 70.4455 30.329C70.9903 31.0255 71.7446 31.3736 72.7084 31.3736Z" fill="black"/>
<path d="M84.919 19.2472C86.1966 19.2472 87.2322 20.2929 87.2322 21.583V32.8366C87.2322 34.1267 86.1966 35.1724 84.919 35.1724C83.6416 35.1724 82.6059 34.1267 82.6059 32.8366V21.583C82.6059 20.2929 83.6416 19.2472 84.919 19.2472ZM84.919 12C85.6293 12 86.2075 12.235 86.6539 12.7049C87.1003 13.1749 87.3235 13.7837 87.3235 14.5314C87.3235 15.2577 87.1003 15.8665 86.6539 16.3578C86.2075 16.8278 85.6293 17.0628 84.919 17.0628C84.2292 17.0628 83.6509 16.8278 83.1842 16.3578C82.7379 15.8665 82.5146 15.2577 82.5146 14.5314C82.5146 13.7837 82.7379 13.1749 83.1842 12.7049C83.6509 12.235 84.2292 12 84.919 12Z" fill="black"/>
<path d="M107.581 27.1047C107.581 26.029 107.36 25.1642 106.917 24.5104C106.494 23.8565 105.931 23.5296 105.227 23.5296C104.542 23.5296 103.969 23.8882 103.506 24.6053C103.063 25.3013 102.842 26.1344 102.842 27.1047V32.8558C102.842 34.1353 101.815 35.1724 100.548 35.1724C99.2809 35.1724 98.2538 34.1353 98.2538 32.8558V27.1047C98.2538 26.029 98.0425 25.1642 97.6199 24.5104C97.1973 23.8565 96.6439 23.5296 95.9597 23.5296C95.2352 23.5296 94.6416 23.8565 94.1788 24.5104C93.736 25.1642 93.5147 26.029 93.5147 27.1047V32.8558C93.5147 34.1353 92.4876 35.1724 91.2206 35.1724C89.9537 35.1724 88.9265 34.1353 88.9265 32.8558V21.7649C88.9265 20.4854 89.9729 19.4483 91.2399 19.4483C92.4857 19.4483 93.5147 20.4681 93.5147 21.7262C93.9373 21.0091 94.4504 20.4713 95.0541 20.1127C95.678 19.733 96.332 19.5432 97.0162 19.5432C97.801 19.5432 98.5758 19.8385 99.3404 20.429C100.105 21.0196 100.729 21.7368 101.212 22.5804C101.796 21.7578 102.54 21.0513 103.446 20.4607C104.371 19.849 105.236 19.5432 106.041 19.5432C107.953 19.5432 109.452 20.2392 110.539 21.6313C111.626 23.0234 112.169 24.8479 112.169 27.1047V32.8558C112.169 34.1353 111.142 35.1724 109.875 35.1724C108.608 35.1724 107.581 34.1353 107.581 32.8558V27.1047Z" fill="black"/>
<path d="M120.986 31.6473C121.949 31.6473 122.694 31.3112 123.219 30.6389C123.744 29.9457 124.007 28.9793 124.007 27.7399C124.007 26.5005 123.744 25.5341 123.219 24.8408C122.694 24.1476 121.949 23.801 120.986 23.801C120.044 23.801 119.299 24.1476 118.752 24.8408C118.226 25.5341 117.963 26.5005 117.963 27.7399C117.963 28.9793 118.226 29.9457 118.752 30.6389C119.277 31.3112 120.022 31.6473 120.986 31.6473ZM120.986 19.8621C122.54 19.8621 123.92 20.1982 125.124 20.8704C126.35 21.5427 127.303 22.4775 127.982 23.6749C128.661 24.8513 129 26.2064 129 27.7399C129 29.2524 128.661 30.6075 127.982 31.8049C127.303 32.9813 126.35 33.9056 125.124 34.5779C123.92 35.2501 122.54 35.5862 120.986 35.5862C119.43 35.5862 118.04 35.2501 116.813 34.5779C115.609 33.9056 114.668 32.9813 113.989 31.8049C113.31 30.6075 112.97 29.2524 112.97 27.7399C112.97 26.2064 113.31 24.8513 113.989 23.6749C114.668 22.4775 115.609 21.5427 116.813 20.8704C118.04 20.1982 119.43 19.8621 120.986 19.8621Z" fill="black"/>
</g>
<path d="M340.354 33C341.059 33.6224 341.986 34 343 34C344.014 34 344.941 33.6224 345.646 33M349 20C349 18.4087 348.368 16.8826 347.243 15.7574C346.117 14.6321 344.591 14 343 14C341.409 14 339.883 14.6321 338.757 15.7574C337.632 16.8826 337 18.4087 337 20C337 23.0902 336.22 25.206 335.35 26.6054C334.615 27.7859 334.248 28.3761 334.261 28.5408C334.276 28.7231 334.315 28.7926 334.462 28.9016C334.594 29 335.193 29 336.389 29H349.611C350.807 29 351.406 29 351.538 28.9016C351.685 28.7926 351.724 28.7231 351.739 28.5408C351.752 28.3761 351.385 27.7859 350.65 26.6054C349.78 25.206 349 23.0902 349 20Z" stroke="black" stroke-width="2" stroke-linecap="round" stroke-linejoin="round"/>
<defs>
<clipPath id="clip0_101_266">
<rect width="109" height="24" fill="white" transform="translate(20 12)"/>
</clipPath>
</defs>
</svg>
