<svg width="400" height="87" viewBox="0 0 400 87" fill="none" xmlns="http://www.w3.org/2000/svg">
<g clip-path="url(#clip0_74_12)">
<mask id="mask0_74_12" style="mask-type:luminance" maskUnits="userSpaceOnUse" x="0" y="0" width="400" height="87">
<path d="M400 0H0V87H400V0Z" fill="white"/>
</mask>
<g mask="url(#mask0_74_12)">
<path d="M36.0902 72.0001C36.0902 76.9705 32.0508 81.0001 27.0676 81.0001C22.0846 81.0001 18.045 76.9705 18.045 72.0001V58.5H23.5344C28.8614 58.5 33.523 55.6211 36.0902 51.3165V72.0001ZM18.6472 38.6982H18.0539C18.0877 37.674 18.2979 36.696 18.6472 35.7861V38.6982Z" fill="#00D5C4"/>
<path d="M27.0677 15C32.0503 15 36.0896 19.03 36.0902 24V42C36.0902 42.0906 36.0842 42.1824 36.0815 42.2724C36.0827 42.3174 36.0902 42.3621 36.0902 42.4071C36.0902 49.863 30.0309 55.9071 22.5564 55.9071H9.02254C4.03955 55.9071 -3.928e-08 51.8778 0 46.9071C0.00035643 41.937 4.03976 37.9071 9.02254 37.9071H18.0451V24C18.0459 19.03 22.0851 15 27.0677 15Z" fill="#00D5C4"/>
<mask id="mask1_74_12" style="mask-type:luminance" maskUnits="userSpaceOnUse" x="39" y="28" width="67" height="55">
<path d="M105.263 28.2656H39.0977V82.2655H105.263V28.2656Z" fill="white"/>
</mask>
<g mask="url(#mask1_74_12)">
<path d="M79.5681 28.5891C86.5521 28.5891 92.0319 30.9669 96.0016 35.7189C99.9707 40.4703 101.953 46.698 101.953 54.4011V73.5833C101.953 78.2 98.2013 81.9426 93.5733 81.9426C88.9448 81.9426 85.1932 78.2 85.1932 73.5833V54.4011C85.1932 50.7291 84.3833 47.7768 82.7665 45.5448C81.2225 43.3137 79.1644 42.1983 76.5924 42.198C74.0931 42.198 71.9974 43.4211 70.3064 45.8685C68.6891 48.2442 67.8797 51.0891 67.8797 54.4011V73.5812C67.8797 78.199 64.1271 81.9426 59.498 81.9426C54.869 81.9426 51.1161 78.199 51.1161 73.5812V54.4011C51.1161 50.7291 50.3444 47.7768 48.8006 45.5448C47.2571 43.314 45.2364 42.1983 42.7377 42.198C41.4033 42.198 40.1892 42.6981 39.0977 43.2658V30.7302C39.2081 30.6648 39.3158 30.5955 39.428 30.5331C41.707 29.2372 44.0971 28.5891 46.5966 28.5891C49.4632 28.5891 52.2933 29.5973 55.0865 31.6125C57.8797 33.6282 60.1605 36.0771 61.9247 38.9568C64.0565 36.1492 66.7765 33.7374 70.0842 31.7214C73.4656 29.6337 76.6274 28.5893 79.5681 28.5891Z" fill="white"/>
</g>
<path d="M134.293 83.9998C128.815 83.9998 123.923 82.8172 119.618 80.4521C115.313 78.0098 111.948 74.6528 109.522 70.3793C107.095 66.0299 105.882 61.1084 105.882 55.6144C105.882 50.0442 107.095 45.1224 109.522 40.8495C111.948 36.5001 115.313 33.1044 119.618 30.6627C123.923 28.2209 128.815 27 134.293 27C145.563 27 153.821 32.1123 159.065 42.3372C160.865 45.6948 161.765 50.502 161.765 56.7589L161.721 58.5265C161.679 60.154 160.346 61.4517 158.714 61.4517H122.553C123.257 63.97 124.745 65.9918 127.014 67.5182C129.363 68.9681 131.827 69.6927 134.41 69.6927C137.228 69.6927 139.497 69.2348 141.22 68.3195C141.231 68.3127 141.243 68.3064 141.255 68.3002C143.187 67.2359 145.259 66.0002 147.467 66.0002H149.473C155.493 66.0002 159.861 70.8222 155.947 75.3842C154.324 77.2747 152.44 78.9215 150.729 79.9941C146.424 82.6646 140.946 83.9998 134.293 83.9998ZM144.833 50.3889C144.128 47.1843 143.333 45.5802 141.455 43.8252C139.576 42.0702 137.189 41.1927 134.293 41.1927C131.319 41.1927 128.815 42.0702 126.78 43.8252C124.745 45.5802 124.234 47.1843 123.529 50.3889H144.833Z" fill="white"/>
<path d="M190.888 83.9998C185.659 83.9998 181.046 82.8141 177.047 80.4427C173.126 77.9947 170.088 74.6283 167.935 70.3445C165.783 65.9835 164.706 61.011 164.706 55.4263C164.706 49.8414 165.783 44.907 167.935 40.623C170.088 36.2622 173.126 32.8578 177.047 30.4098C181.046 27.9617 185.659 26.7377 190.888 26.7377C192.887 26.7377 195.348 27.235 198.27 28.2295C201.192 29.1476 203.768 31.1748 205.997 34.3116V8.74397C205.997 3.91479 209.923 -3.79768e-08 214.763 0C219.605 3.79763e-08 223.529 3.91479 223.529 8.74397V75.256C223.529 80.0853 219.605 83.9998 214.763 83.9998H213.476C209.345 83.9998 205.997 80.6605 205.997 76.5412C203.768 79.4482 201.115 81.3992 198.039 82.3937C195.041 83.4643 192.657 83.9998 190.888 83.9998ZM193.425 70.2293C197.04 70.2293 200.039 68.891 202.423 66.2132C204.806 63.4589 205.997 60.0165 205.997 55.8853C205.997 51.6777 204.806 48.1968 202.423 45.4425C200.039 42.6885 197.04 41.3115 193.425 41.3115C189.889 41.3115 187.121 42.5739 185.121 45.0984C183.199 47.6229 182.237 51.2187 182.237 55.8853C182.237 60.3988 183.199 63.9179 185.121 66.4425C187.121 68.967 189.889 70.2293 193.425 70.2293Z" fill="white"/>
<path d="M238.235 26.271C242.923 26.271 246.724 30.0618 246.724 34.7382V75.5327C246.724 80.2093 242.923 83.9998 238.235 83.9998C233.547 83.9998 229.747 80.2093 229.747 75.5327V34.7382C229.747 30.0618 233.547 26.271 238.235 26.271ZM238.235 0C240.841 2.0445e-08 242.964 0.851803 244.602 2.5554C246.239 4.25901 247.059 6.46597 247.059 9.17621C247.059 11.8091 246.239 14.016 244.602 15.7971C242.964 17.5007 240.841 18.3525 238.235 18.3525C235.704 18.3525 233.582 17.5007 231.869 15.7971C230.231 14.016 229.412 11.8091 229.412 9.17621C229.412 6.46597 230.231 4.25901 231.869 2.5554C233.582 0.851803 235.704 -1.98579e-08 238.235 0Z" fill="white"/>
<path d="M321.399 54.7542C321.399 50.8551 320.587 47.7204 318.963 45.3501C317.411 42.9798 315.341 41.7948 312.758 41.7948C310.247 41.7948 308.141 43.0947 306.445 45.6942C304.818 48.2172 304.006 51.2373 304.006 54.7542V75.6025C304.006 80.2406 300.237 83.9998 295.588 83.9998C290.939 83.9998 287.17 80.2406 287.17 75.6025V54.7542C287.17 50.8551 286.394 47.7204 284.843 45.3501C283.293 42.9798 281.262 41.7948 278.751 41.7948C276.093 41.7948 273.914 42.9798 272.215 45.3501C270.591 47.7204 269.778 50.8551 269.778 54.7542V75.6025C269.778 80.2406 266.009 83.9998 261.359 83.9998C256.711 83.9998 252.941 80.2406 252.941 75.6025V35.3976C252.941 30.7596 256.781 27 261.431 27C266.003 27 269.778 30.6969 269.778 35.2575C271.329 32.658 273.213 30.7083 275.427 29.4084C277.717 28.0322 280.117 27.344 282.628 27.344C285.508 27.344 288.351 28.4145 291.157 30.5553C293.963 32.6961 296.253 35.2959 298.025 38.3541C300.167 35.3721 302.899 32.811 306.223 30.6699C309.618 28.4527 312.794 27.344 315.747 27.344C322.764 27.344 328.265 29.8672 332.253 34.9134C336.24 39.9597 338.235 46.5735 338.235 54.7542V75.6025C338.235 80.2406 334.466 83.9998 329.816 83.9998C325.167 83.9998 321.399 80.2406 321.399 75.6025V54.7542Z" fill="white"/>
<path d="M371.112 71.2217C374.646 71.2217 377.38 70.0027 379.308 67.5662C381.236 65.0531 382.201 61.5502 382.201 57.0569C382.201 52.5641 381.236 49.0611 379.308 46.548C377.38 44.0352 374.646 42.7785 371.112 42.7785C367.656 42.7785 364.923 44.0352 362.914 46.548C360.986 49.0611 360.02 52.5641 360.02 57.0569C360.02 61.5502 360.986 65.0531 362.914 67.5662C364.842 70.0027 367.575 71.2217 371.112 71.2217ZM371.112 28.5C376.818 28.5 381.879 29.7185 386.3 32.1552C390.799 34.5921 394.294 37.9809 396.787 42.3216C399.278 46.5861 400.523 51.498 400.523 57.0569C400.523 62.54 399.278 67.4521 396.787 71.7927C394.294 76.0573 390.799 79.4081 386.3 81.8446C381.879 84.2816 376.818 85.5002 371.112 85.5002C365.404 85.5002 360.303 84.2816 355.801 81.8446C351.383 79.4081 347.927 76.0573 345.437 71.7927C342.944 67.4521 341.699 62.54 341.699 57.0569C341.699 51.498 342.944 46.5861 345.437 42.3216C347.927 37.9809 351.383 34.5921 355.801 32.1552C360.303 29.7185 365.404 28.5 371.112 28.5Z" fill="white"/>
</g>
</g>
<defs>
<clipPath id="clip0_74_12">
<rect width="400" height="87" fill="white"/>
</clipPath>
</defs>
</svg>
