<svg width="113" height="73" viewBox="0 0 113 73" fill="none" xmlns="http://www.w3.org/2000/svg">
<path d="M38.743 61.2414C38.743 66.582 34.4067 70.9111 29.0573 70.9111C23.708 70.9111 19.3716 66.582 19.3716 61.2414V46.7369H25.2644C30.983 46.7365 35.9872 43.6435 38.743 39.0188V61.2414ZM20.018 25.4616H19.381C19.4174 24.3612 19.643 23.3104 20.018 22.3328V25.4616Z" fill="#0E4E97"/>
<path d="M29.0572 0C34.406 4.20451e-08 38.7422 4.32993 38.7429 9.6697V29.0091C38.7429 29.1064 38.7365 29.205 38.7335 29.3018C38.7348 29.3501 38.7429 29.3981 38.7429 29.4465C38.7429 37.4572 32.2382 43.951 24.2143 43.951H9.68573C4.33646 43.951 -4.21158e-08 39.6219 0 34.2813C0.000382628 28.9414 4.33669 24.6116 9.68573 24.6116H19.3715V9.6697C19.3723 4.32993 23.7084 -4.20451e-08 29.0572 0Z" fill="#1B7BE8"/>
<mask id="mask0_230_1730" style="mask-type:luminance" maskUnits="userSpaceOnUse" x="41" y="14" width="72" height="59">
<path d="M113 14.2527H41.9712V72.2709H113V14.2527Z" fill="white"/>
</mask>
<g mask="url(#mask0_230_1730)">
<path d="M85.4161 14.6002C92.9132 14.6002 98.7959 17.155 103.058 22.2606C107.318 27.3656 109.447 34.0566 109.447 42.3326V62.9423C109.447 67.9025 105.419 71.9235 100.451 71.9235C95.4819 71.9235 91.4546 67.9025 91.4546 62.9423V42.3326C91.4546 38.3877 90.5853 35.2157 88.8497 32.8176C87.1923 30.4205 84.9825 29.2221 82.2218 29.2218C79.5386 29.2218 77.2889 30.5359 75.4736 33.1654C73.7378 35.7179 72.8689 38.7745 72.8689 42.3326V62.9403C72.8689 67.9015 68.8403 71.9235 63.8709 71.9235C58.9015 71.9235 54.8728 67.9015 54.8728 62.9403L54.8729 42.3326C54.8729 38.3877 54.0444 35.2157 52.3872 32.8176C50.7303 30.4208 48.561 29.2221 45.8787 29.2218C44.4462 29.2218 43.1428 29.7591 41.9712 30.369V16.9007C42.0897 16.8304 42.2052 16.7559 42.3257 16.6889C44.7723 15.2966 47.338 14.6002 50.0213 14.6002C53.0984 14.6002 56.1365 15.6834 59.1349 17.8486C62.1336 20.0143 64.5818 22.6454 66.476 25.7394C68.7645 22.7228 71.6841 20.1316 75.235 17.9656C78.865 15.7226 82.2595 14.6004 85.4161 14.6002Z" fill="#121212"/>
</g>
</svg>
