<svg width="68" height="14" viewBox="0 0 68 14" fill="none" xmlns="http://www.w3.org/2000/svg">
<g clip-path="url(#clip0_225_273)">
<path d="M47.541 12.6265H60.5898C62.0093 12.6265 63.2046 12.4937 64.0513 11.647C64.8979 10.8003 65.0225 9.62158 65.0225 8.20215V5.81982C65.0225 4.40039 64.8979 3.22168 64.0513 2.375C63.2046 1.52832 62.0093 1.39551 60.5898 1.39551H47.5244C46.1299 1.39551 44.9346 1.52832 44.0879 2.375C43.2412 3.22168 43.1167 4.40869 43.1167 5.79492V8.20215C43.1167 9.62158 43.2412 10.8003 44.0879 11.647C44.9346 12.4937 46.1299 12.6265 47.541 12.6265ZM47.3169 11.29C46.4619 11.29 45.5654 11.1738 45.0591 10.6758C44.561 10.1694 44.4531 9.28125 44.4531 8.42627V5.6123C44.4531 4.74072 44.561 3.85254 45.0591 3.34619C45.5654 2.83984 46.4702 2.73193 47.3418 2.73193H60.8223C61.6772 2.73193 62.5737 2.84814 63.0718 3.34619C63.5781 3.85254 63.686 4.73242 63.686 5.5874V8.42627C63.686 9.28125 63.5781 10.1694 63.0718 10.6758C62.5737 11.1738 61.6772 11.29 60.8223 11.29H47.3169ZM46.877 10.3271H61.2705C61.835 10.3271 62.167 10.2441 62.3994 10.0117C62.6318 9.7793 62.7231 9.44727 62.7231 8.87451V5.14746C62.7231 4.57471 62.6318 4.24268 62.3994 4.01025C62.167 3.77783 61.835 3.69482 61.2705 3.69482H46.9019C46.3125 3.69482 45.9722 3.77783 45.748 4.01025C45.5156 4.24268 45.4243 4.58301 45.4243 5.16406V8.87451C45.4243 9.44727 45.5156 9.7793 45.748 10.0117C45.9805 10.2441 46.3125 10.3271 46.877 10.3271ZM66.1514 9.15674C66.8071 9.11523 67.687 8.27686 67.687 7.00684C67.687 5.74512 66.8071 4.90674 66.1514 4.86523V9.15674Z" fill="#121212"/>
<path d="M2 8.3002C2.27879 8.3002 2.41826 8.29961 2.53418 8.32266C3.01021 8.41735 3.38187 8.78999 3.47656 9.26602C3.49961 9.38193 3.5 9.52144 3.5 9.8002V10.8002C3.5 11.0789 3.49961 11.2185 3.47656 11.3344C3.38178 11.8102 3.01005 12.1821 2.53418 12.2768C2.41826 12.2998 2.27879 12.3002 2 12.3002C1.72121 12.3002 1.58174 12.2998 1.46582 12.2768C0.98995 12.1821 0.618223 11.8102 0.523438 11.3344C0.500385 11.2185 0.5 11.0789 0.5 10.8002V9.8002C0.5 9.52144 0.500388 9.38193 0.523438 9.26602C0.618125 8.78999 0.989792 8.41735 1.46582 8.32266C1.58174 8.29961 1.72121 8.3002 2 8.3002ZM6.7998 6.3002C7.07845 6.3002 7.2181 6.29964 7.33398 6.32266C7.81001 6.41735 8.18266 6.78999 8.27734 7.26602C8.30036 7.3819 8.2998 7.52156 8.2998 7.8002V10.8002C8.2998 11.0789 8.3004 11.2185 8.27734 11.3344C8.1826 11.8103 7.80996 12.1821 7.33398 12.2768C7.21808 12.2998 7.07854 12.3002 6.7998 12.3002C6.52113 12.3002 6.38152 12.2998 6.26562 12.2768C5.78983 12.182 5.418 11.8102 5.32324 11.3344C5.30019 11.2185 5.2998 11.0789 5.2998 10.8002V7.8002C5.2998 7.52147 5.3002 7.38193 5.32324 7.26602C5.41792 6.79005 5.78968 6.4174 6.26562 6.32266C6.38152 6.29961 6.52113 6.3002 6.7998 6.3002ZM11.4004 4.0004C11.6789 4.0004 11.8187 3.99981 11.9346 4.02286C12.4104 4.11768 12.7823 4.49032 12.877 4.96622C12.8999 5.08207 12.9004 5.22185 12.9004 5.5004V10.8002C12.9004 11.0789 12.9 11.2185 12.877 11.3344C12.7822 11.8101 12.4103 12.1819 11.9346 12.2768C11.8187 12.2998 11.6789 12.3002 11.4004 12.3002C11.1218 12.3002 10.9821 12.2998 10.8662 12.2768C10.3903 12.1821 10.0176 11.8103 9.92285 11.3344C9.8998 11.2185 9.90039 11.0789 9.90039 10.8002V5.5004C9.90039 5.22188 9.89986 5.08207 9.92285 4.96622C10.0175 4.49019 10.3902 4.11755 10.8662 4.02286C10.9821 3.99987 11.1219 4.0004 11.4004 4.0004ZM16.0996 1.60001C16.3782 1.60001 16.5179 1.60043 16.6338 1.62344C17.1098 1.71813 17.4825 2.08981 17.5771 2.56583C17.6002 2.68175 17.5996 2.82121 17.5996 3.10001V10.8002C17.5996 11.0789 17.6002 11.2185 17.5771 11.3344C17.4824 11.8103 17.1097 12.1821 16.6338 12.2768C16.5179 12.2998 16.3782 12.3002 16.0996 12.3002C15.8211 12.3002 15.6813 12.2998 15.5654 12.2768C15.0897 12.1819 14.7178 11.8101 14.623 11.3344C14.6 11.2185 14.5996 11.0789 14.5996 10.8002V3.10001C14.5996 2.82121 14.6 2.68175 14.623 2.56583C14.7177 2.09 15.0897 1.71829 15.5654 1.62344C15.6813 1.6004 15.8211 1.60001 16.0996 1.60001Z" fill="#121212"/>
<path d="M23.3652 6.17578C23.4951 6.3125 23.6934 6.30566 23.8232 6.16895C25.5049 4.38477 27.7197 3.44141 30.2012 3.44141C32.6963 3.44141 34.9248 4.3916 36.5928 6.17578C36.7158 6.29883 36.9072 6.29883 37.0371 6.16211L37.9805 5.21875C38.0967 5.0957 38.0967 4.94531 38.001 4.8291C36.3945 2.84668 33.373 1.39062 30.2012 1.39062C27.0361 1.39062 24.001 2.84668 22.4014 4.8291C22.3057 4.94531 22.3057 5.0957 22.4219 5.21875L23.3652 6.17578ZM26.2021 9.0332C26.3525 9.17676 26.5371 9.15625 26.6738 9.00586C27.4941 8.09668 28.834 7.43359 30.2012 7.44043C31.582 7.43359 32.9219 8.11719 33.7559 9.02637C33.8789 9.16992 34.0566 9.16992 34.2002 9.02637L35.2598 7.97363C35.3691 7.86426 35.3828 7.71387 35.2803 7.59082C34.248 6.32617 32.334 5.37598 30.2012 5.37598C28.0684 5.37598 26.1543 6.32617 25.1221 7.59082C25.0195 7.71387 25.0332 7.85059 25.1426 7.97363L26.2021 9.0332ZM30.2012 12.752C30.3516 12.752 30.4814 12.6836 30.748 12.4238L32.416 10.8242C32.5186 10.7217 32.5459 10.5713 32.4502 10.4482C32.0059 9.87402 31.165 9.375 30.2012 9.375C29.21 9.375 28.3691 9.89453 27.9248 10.4893C27.8564 10.5986 27.8838 10.7217 27.9932 10.8242L29.6543 12.4238C29.9209 12.6768 30.0508 12.752 30.2012 12.752Z" fill="#121212"/>
</g>
<defs>
<clipPath id="clip0_225_273">
<rect width="68" height="14" fill="white"/>
</clipPath>
</defs>
</svg>
