<svg width="375" height="56" viewBox="0 0 375 56" fill="none" xmlns="http://www.w3.org/2000/svg">
<g clip-path="url(#clip0_43_715)">
<path d="M35.9059 22.9857C33.6135 22.9857 31.9802 24.553 31.9802 26.699V26.7137C31.9802 28.7205 33.4011 30.2 35.4299 30.2C36.8801 30.2 37.8029 29.4603 38.1911 28.6253H38.3376C38.3376 28.7059 38.3303 28.7864 38.3303 28.867C38.2497 30.8885 37.5392 32.5291 35.862 32.5291C34.9318 32.5291 34.28 32.0457 34.0017 31.306L33.9797 31.2327H32.1193L32.134 31.3133C32.4709 32.932 33.9211 34.0819 35.862 34.0819C38.5207 34.0819 40.1247 31.9725 40.1247 28.4129V28.3983C40.1247 24.5897 38.1618 22.9857 35.9059 22.9857ZM35.8986 28.7498C34.6975 28.7498 33.8259 27.8709 33.8259 26.6478V26.6331C33.8259 25.4539 34.756 24.5238 35.9206 24.5238C37.0925 24.5238 38.008 25.4686 38.008 26.6771V26.6917C38.008 27.8856 37.0925 28.7498 35.8986 28.7498ZM43.2849 26.97C43.9587 26.97 44.4494 26.4573 44.4494 25.8128C44.4494 25.161 43.9587 24.6556 43.2849 24.6556C42.6184 24.6556 42.1203 25.161 42.1203 25.8128C42.1203 26.4573 42.6184 26.97 43.2849 26.97ZM43.2849 32.4046C43.9587 32.4046 44.4494 31.8992 44.4494 31.2474C44.4494 30.5955 43.9587 30.0902 43.2849 30.0902C42.6184 30.0902 42.1203 30.5955 42.1203 31.2474C42.1203 31.8992 42.6184 32.4046 43.2849 32.4046ZM51.572 33.8182H53.3811V31.7894H54.802V30.2293H53.3811V23.2493H50.7078C49.2722 25.432 47.7708 27.8636 46.4011 30.244V31.7894H51.572V33.8182ZM48.159 30.2733V30.1634C49.1843 28.369 50.4075 26.4134 51.4915 24.7581H51.6013V30.2733H48.159ZM59.0169 33.8182H60.9066V23.2493H59.0242L56.263 25.1903V26.97L58.8924 25.1097H59.0169V33.8182Z" fill="#121212"/>
</g>
<g clip-path="url(#clip1_43_715)">
<path d="M334.541 34.6265H347.59C349.009 34.6265 350.205 34.4937 351.051 33.647C351.898 32.8003 352.022 31.6216 352.022 30.2021V27.8198C352.022 26.4004 351.898 25.2217 351.051 24.375C350.205 23.5283 349.009 23.3955 347.59 23.3955H334.524C333.13 23.3955 331.935 23.5283 331.088 24.375C330.241 25.2217 330.117 26.4087 330.117 27.7949V30.2021C330.117 31.6216 330.241 32.8003 331.088 33.647C331.935 34.4937 333.13 34.6265 334.541 34.6265ZM334.317 33.29C333.462 33.29 332.565 33.1738 332.059 32.6758C331.561 32.1694 331.453 31.2812 331.453 30.4263V27.6123C331.453 26.7407 331.561 25.8525 332.059 25.3462C332.565 24.8398 333.47 24.7319 334.342 24.7319H347.822C348.677 24.7319 349.574 24.8481 350.072 25.3462C350.578 25.8525 350.686 26.7324 350.686 27.5874V30.4263C350.686 31.2812 350.578 32.1694 350.072 32.6758C349.574 33.1738 348.677 33.29 347.822 33.29H334.317ZM333.877 32.3271H348.271C348.835 32.3271 349.167 32.2441 349.399 32.0117C349.632 31.7793 349.723 31.4473 349.723 30.8745V27.1475C349.723 26.5747 349.632 26.2427 349.399 26.0103C349.167 25.7778 348.835 25.6948 348.271 25.6948H333.902C333.312 25.6948 332.972 25.7778 332.748 26.0103C332.516 26.2427 332.424 26.583 332.424 27.1641V30.8745C332.424 31.4473 332.516 31.7793 332.748 32.0117C332.98 32.2441 333.312 32.3271 333.877 32.3271ZM353.151 31.1567C353.807 31.1152 354.687 30.2769 354.687 29.0068C354.687 27.7451 353.807 26.9067 353.151 26.8652V31.1567Z" fill="#121212"/>
<path d="M289 30.3002C289.279 30.3002 289.418 30.2996 289.534 30.3227C290.01 30.4173 290.382 30.79 290.477 31.266C290.5 31.3819 290.5 31.5214 290.5 31.8002V32.8002C290.5 33.0789 290.5 33.2185 290.477 33.3344C290.382 33.8102 290.01 34.1821 289.534 34.2768C289.418 34.2998 289.279 34.3002 289 34.3002C288.721 34.3002 288.582 34.2998 288.466 34.2768C287.99 34.1821 287.618 33.8102 287.523 33.3344C287.5 33.2185 287.5 33.0789 287.5 32.8002V31.8002C287.5 31.5214 287.5 31.3819 287.523 31.266C287.618 30.79 287.99 30.4173 288.466 30.3227C288.582 30.2996 288.721 30.3002 289 30.3002ZM293.8 28.3002C294.078 28.3002 294.218 28.2996 294.334 28.3227C294.81 28.4173 295.183 28.79 295.277 29.266C295.3 29.3819 295.3 29.5216 295.3 29.8002V32.8002C295.3 33.0789 295.3 33.2185 295.277 33.3344C295.183 33.8103 294.81 34.1821 294.334 34.2768C294.218 34.2998 294.079 34.3002 293.8 34.3002C293.521 34.3002 293.382 34.2998 293.266 34.2768C292.79 34.182 292.418 33.8102 292.323 33.3344C292.3 33.2185 292.3 33.0789 292.3 32.8002V29.8002C292.3 29.5215 292.3 29.3819 292.323 29.266C292.418 28.79 292.79 28.4174 293.266 28.3227C293.382 28.2996 293.521 28.3002 293.8 28.3002ZM298.4 26.0004C298.679 26.0004 298.819 25.9998 298.935 26.0229C299.41 26.1177 299.782 26.4903 299.877 26.9662C299.9 27.0821 299.9 27.2218 299.9 27.5004V32.8002C299.9 33.0789 299.9 33.2185 299.877 33.3344C299.782 33.8101 299.41 34.1819 298.935 34.2768C298.819 34.2998 298.679 34.3002 298.4 34.3002C298.122 34.3002 297.982 34.2998 297.866 34.2768C297.39 34.1821 297.018 33.8103 296.923 33.3344C296.9 33.2185 296.9 33.0789 296.9 32.8002V27.5004C296.9 27.2219 296.9 27.0821 296.923 26.9662C297.018 26.4902 297.39 26.1175 297.866 26.0229C297.982 25.9999 298.122 26.0004 298.4 26.0004ZM303.1 23.6C303.378 23.6 303.518 23.6004 303.634 23.6234C304.11 23.7181 304.482 24.0898 304.577 24.5658C304.6 24.6817 304.6 24.8212 304.6 25.1V32.8002C304.6 33.0789 304.6 33.2185 304.577 33.3344C304.482 33.8103 304.11 34.1821 303.634 34.2768C303.518 34.2998 303.378 34.3002 303.1 34.3002C302.821 34.3002 302.681 34.2998 302.565 34.2768C302.09 34.1819 301.718 33.8101 301.623 33.3344C301.6 33.2185 301.6 33.0789 301.6 32.8002V25.1C301.6 24.8212 301.6 24.6817 301.623 24.5658C301.718 24.09 302.09 23.7183 302.565 23.6234C302.681 23.6004 302.821 23.6 303.1 23.6Z" fill="#121212"/>
<path d="M310.365 28.1758C310.495 28.3125 310.693 28.3057 310.823 28.1689C312.505 26.3848 314.72 25.4414 317.201 25.4414C319.696 25.4414 321.925 26.3916 323.593 28.1758C323.716 28.2988 323.907 28.2988 324.037 28.1621L324.98 27.2188C325.097 27.0957 325.097 26.9453 325.001 26.8291C323.395 24.8467 320.373 23.3906 317.201 23.3906C314.036 23.3906 311.001 24.8467 309.401 26.8291C309.306 26.9453 309.306 27.0957 309.422 27.2188L310.365 28.1758ZM313.202 31.0332C313.353 31.1768 313.537 31.1562 313.674 31.0059C314.494 30.0967 315.834 29.4336 317.201 29.4404C318.582 29.4336 319.922 30.1172 320.756 31.0264C320.879 31.1699 321.057 31.1699 321.2 31.0264L322.26 29.9736C322.369 29.8643 322.383 29.7139 322.28 29.5908C321.248 28.3262 319.334 27.376 317.201 27.376C315.068 27.376 313.154 28.3262 312.122 29.5908C312.02 29.7139 312.033 29.8506 312.143 29.9736L313.202 31.0332ZM317.201 34.752C317.352 34.752 317.481 34.6836 317.748 34.4238L319.416 32.8242C319.519 32.7217 319.546 32.5713 319.45 32.4482C319.006 31.874 318.165 31.375 317.201 31.375C316.21 31.375 315.369 31.8945 314.925 32.4893C314.856 32.5986 314.884 32.7217 314.993 32.8242L316.654 34.4238C316.921 34.6768 317.051 34.752 317.201 34.752Z" fill="#121212"/>
</g>
<defs>
<clipPath id="clip0_43_715">
<rect width="53.7135" height="22.9091" fill="white" transform="translate(19.8938 17.8182)"/>
</clipPath>
<clipPath id="clip1_43_715">
<rect width="68" height="14" fill="white" transform="translate(287 22)"/>
</clipPath>
</defs>
</svg>
