<svg width="30" height="13" viewBox="0 0 30 13" fill="none" xmlns="http://www.w3.org/2000/svg">
<path d="M4.90595 0.985657C2.61347 0.985657 0.980166 2.55304 0.980166 4.69904V4.71368C0.980166 6.72052 2.40106 8.20001 4.42987 8.20001C5.88007 8.20001 6.80292 7.46027 7.1911 6.62531H7.33759C7.33759 6.70587 7.33026 6.78644 7.33026 6.867C7.2497 8.88849 6.53925 10.5291 4.862 10.5291C3.93183 10.5291 3.27997 10.0457 3.00165 9.30597L2.97968 9.23273H1.11933L1.13398 9.31329C1.47089 10.9319 2.92108 12.0818 4.862 12.0818C7.52069 12.0818 9.1247 9.97247 9.1247 6.4129V6.39825C9.1247 2.58966 7.16181 0.985657 4.90595 0.985657ZM4.89862 6.74982C3.69745 6.74982 2.82587 5.87091 2.82587 4.64777V4.63312C2.82587 3.45392 3.75605 2.52374 4.9206 2.52374C6.09247 2.52374 7.008 3.46857 7.008 4.67706V4.69171C7.008 5.88556 6.09247 6.74982 4.89862 6.74982ZM12.2849 4.97003C12.9587 4.97003 13.4494 4.45734 13.4494 3.81281C13.4494 3.16095 12.9587 2.65558 12.2849 2.65558C11.6184 2.65558 11.1203 3.16095 11.1203 3.81281C11.1203 4.45734 11.6184 4.97003 12.2849 4.97003ZM12.2849 10.4046C12.9587 10.4046 13.4494 9.89923 13.4494 9.24738C13.4494 8.59552 12.9587 8.09015 12.2849 8.09015C11.6184 8.09015 11.1203 8.59552 11.1203 9.24738C11.1203 9.89923 11.6184 10.4046 12.2849 10.4046ZM20.572 11.8182H22.3811V9.78937H23.802V8.22931H22.3811V1.24933H19.7078C18.2722 3.43195 16.7708 5.86359 15.4011 8.24396V9.78937H20.572V11.8182ZM17.159 8.27325V8.16339C18.1843 6.36896 19.4075 4.41339 20.4915 2.75812H20.6013V8.27325H17.159ZM28.0169 11.8182H29.9066V1.24933H28.0242L25.263 3.19025V4.97003L27.8924 3.10968H28.0169V11.8182Z" fill="#121212"/>
</svg>
